<svg xmlns="http://www.w3.org/2000/svg" viewBox="0 0 359.16 88.47"><defs><style>.\31 8f9de91-3231-48c1-a2ed-f3b27ff309aa{fill:#fff;}</style></defs><title>Asset 1</title><g id="904b19ec-fc8c-4481-9ddc-44cc966f7d14" data-name="Layer 2"><g id="694aa12f-2695-4df6-852b-57f4669bf480" data-name="logo"><g id="308c1129-90be-4292-b184-8e787bf1dd4c" data-name="&lt;Group&gt;"><path id="718c4080-1d23-4576-9662-f065af90b936" data-name="&lt;Path&gt;" class="18f9de91-3231-48c1-a2ed-f3b27ff309aa" d="M69.64,51.78a1.15,1.15,0,0,0,.92.27c.45,0,1.09-.15,2-.27a11.46,11.46,0,0,1,3.47,0A12.57,12.57,0,0,1,81.19,54a12,12,0,0,1,2.67,2.61,8.55,8.55,0,0,1,1.63,3.66,11.59,11.59,0,0,1-.29,5,15.92,15.92,0,0,1-2.85,5.56,19.78,19.78,0,0,1-5.59,4.92,22.49,22.49,0,0,1-8.16,2.68,20.28,20.28,0,0,1-2.37.2c-.81,0-1.64,0-2.47,0a27.29,27.29,0,0,1-5.1-.89,26,26,0,0,1-5.1-2,26.44,26.44,0,0,1-2.41-1.48c-.38-.28-.8-.52-1.16-.83l-1.11-.93a21.31,21.31,0,0,1-6.23-9.94,25.68,25.68,0,0,1-.39-12.73,26.21,26.21,0,0,1,2.24-6.17,23.42,23.42,0,0,1,3.88-5.24,24.06,24.06,0,0,1,2.56-2.17l.68-.51a5.77,5.77,0,0,1,.7-.48l1.47-.86a27.43,27.43,0,0,1,6.47-2.55A39.06,39.06,0,0,1,74.68,31a50.79,50.79,0,0,1,14.17,3.85,85.73,85.73,0,0,1,12.9,7.25c4.06,2.75,7.93,5.7,11.66,8.63,7.45,5.87,14.46,11.62,21.4,16a76.68,76.68,0,0,0,19.4,9.1l1.07.32,1.06.26,2,.48,1.94.34.92.16.9.1c1.18.13,2.27.27,3.29.28s1.92.09,2.75,0,1.55,0,2.18-.08l1.59-.18,1.29-.14-1.3,0-1.59,0-2.16-.1c-.82,0-1.72-.15-2.71-.27s-2-.31-3.19-.53l-.87-.17-.89-.23-1.86-.49L156.73,75l-1-.33-1-.39a75.8,75.8,0,0,1-18.1-10.24c-6.4-4.69-12.84-10.77-20-17.19-3.57-3.2-7.34-6.48-11.42-9.62A90,90,0,0,0,91.8,28.63a57.56,57.56,0,0,0-16-5.28,46.31,46.31,0,0,0-17.47.25,35.79,35.79,0,0,0-8.58,3l-2,1.09a10,10,0,0,0-1,.61l-1,.65a33.35,33.35,0,0,0-3.64,2.88,32.27,32.27,0,0,0-5.8,7.29,34.61,34.61,0,0,0-3.18,26.16,30.57,30.57,0,0,0,3.52,8.07l1.2,1.84c.46.57.91,1.14,1.37,1.7a17,17,0,0,0,1.45,1.6c.51.49,1,1,1.53,1.48l1.62,1.35c.53.45,1.12.81,1.67,1.21a33.25,33.25,0,0,0,3.45,2.08,35.64,35.64,0,0,0,7.13,2.73,36.54,36.54,0,0,0,7.1,1.14c1.17,0,2.32.06,3.46,0A30.46,30.46,0,0,0,70,88.09a31.14,31.14,0,0,0,11.75-4.31,28,28,0,0,0,8-7.68,23.55,23.55,0,0,0,3.84-9,11,11,0,0,0,.18-1.15l.12-1.13c0-.76,0-1.51,0-2.24s-.11-1.45-.23-2.15-.25-1.35-.45-2a15.42,15.42,0,0,0-3.88-6.57,17.08,17.08,0,0,0-4.9-3.48,15,15,0,0,0-8.5-1.44,9.74,9.74,0,0,0-4.8,2,4.64,4.64,0,0,0-1.52,2A.92.92,0,0,0,69.64,51.78Z"/></g><g id="69102f1f-e88c-4c03-a156-e82ba84727ca" data-name="&lt;Group&gt;"><path id="84b47f83-75b9-4906-bb0f-cb2829e8d96b" data-name="&lt;Path&gt;" class="18f9de91-3231-48c1-a2ed-f3b27ff309aa" d="M34.73,18.65c.26.43.86.75,2.11.71.63,0,1.39-.18,2.43-.29.52-.07,1.08-.17,1.7-.3s1.34-.17,2.1-.3A55.48,55.48,0,0,1,48.65,18a49.35,49.35,0,0,1,7.76.43,55,55,0,0,1,10.13,2.42,59.16,59.16,0,0,1,12.21,5.73,116.53,116.53,0,0,1,13.39,9.65C96.66,39.9,101.22,44,105.91,48c2.35,2,4.73,4.07,7.16,6s4.83,3.86,7.3,5.69a105.87,105.87,0,0,0,15,9.54A77,77,0,0,0,150,75.07c2.31.57,4.47,1.14,6.53,1.44,1,.16,2,.38,3,.46l2.72.28,1.27.13,1.2.05,2.19.07c1.36.07,2.53,0,3.48,0l2.92-.12-2.9-.32c-.94-.1-2.09-.19-3.42-.45l-2.12-.37L163.64,76l-1.21-.29-2.6-.63c-.91-.21-1.82-.55-2.78-.83-1.93-.54-3.93-1.37-6.05-2.18A78.39,78.39,0,0,1,137.93,65a110.7,110.7,0,0,1-13.21-10.51c-2.17-2-4.38-4.06-6.55-6.16s-4.31-4.26-6.48-6.45c-4.32-4.37-8.7-8.82-13.3-12.95A97.78,97.78,0,0,0,84,18a59.63,59.63,0,0,0-14.48-6.47A51.31,51.31,0,0,0,57.16,9.42a39.94,39.94,0,0,0-9.49.72,30.16,30.16,0,0,0-6.51,2.11c-.85.41-1.6.79-2.26,1.17s-1.19.81-1.66,1.16a9,9,0,0,0-2,1.93C34.46,17.6,34.47,18.23,34.73,18.65Z"/></g><g id="bd696d20-e715-4cb3-bfc7-fef7b25c29d2" data-name="&lt;Group&gt;"><path id="27ce3c71-e402-4161-b715-c9243c15c132" data-name="&lt;Path&gt;" class="18f9de91-3231-48c1-a2ed-f3b27ff309aa" d="M129.3,24.57a1.26,1.26,0,0,0-1.05-.66,5,5,0,0,0-3,.74,13.54,13.54,0,0,0-4.85,4.62,20,20,0,0,0-3,11.31A22.55,22.55,0,0,0,119,48.11a27.86,27.86,0,0,0,3.94,6.81,34.12,34.12,0,0,0,5.35,5.45,45,45,0,0,0,5.78,4,78.72,78.72,0,0,0,9.75,4.7c2.48,1,4,1.59,4,1.59l-3.47-2.5c-2.16-1.57-5.2-3.75-8.31-6.5a40.89,40.89,0,0,1-8.43-9.91A27.43,27.43,0,0,1,125,46a21.9,21.9,0,0,1-1-5.58,19.5,19.5,0,0,1,1.63-8.18A27.82,27.82,0,0,1,128.08,28a11.15,11.15,0,0,0,1.24-2.17A1.54,1.54,0,0,0,129.3,24.57Z"/></g><g id="33bc69ae-c1a0-49ab-8c99-6b71c91934d6" data-name="&lt;Group&gt;"><path id="d93c8873-3d40-4c91-9702-f3441753bf87" data-name="&lt;Path&gt;" class="18f9de91-3231-48c1-a2ed-f3b27ff309aa" d="M138.3,11.83c.31-.13.58-.44.59-1.28a5,5,0,0,0,0-.73c-.06-.27-.15-.58-.26-.93l-.2-.56c-.08-.19-.19-.38-.3-.59a8.75,8.75,0,0,0-.82-1.33A10.58,10.58,0,0,0,136,4.93a14.23,14.23,0,0,0-1.74-1.52A17.57,17.57,0,0,0,129,.79a19,19,0,0,0-7.89-.63c-.37,0-.76.13-1.15.2s-.78.16-1.18.28l-1.2.37-1.17.47a20.7,20.7,0,0,0-4.61,2.76,23.74,23.74,0,0,0-6.94,9.22,26.46,26.46,0,0,0-1.71,5.77,27,27,0,0,0-.33,6,32.67,32.67,0,0,0,2.74,11.21A41.44,41.44,0,0,0,111,45.53,69.63,69.63,0,0,0,122.68,56.9c1.58,1.25,2.87,2.21,3.76,2.87l1.38,1-1.19-1.22c-.77-.8-1.88-2-3.24-3.43a75.36,75.36,0,0,1-9.62-12.49,40.88,40.88,0,0,1-3.93-8.78,29.57,29.57,0,0,1-1.38-9.71,21.82,21.82,0,0,1,2.21-9A19.62,19.62,0,0,1,116,9.48a15.13,15.13,0,0,1,3.14-1.93l.78-.34.75-.25a4.88,4.88,0,0,1,.75-.2l.74-.18a15.48,15.48,0,0,1,5.41,0,17.11,17.11,0,0,1,4,1.27c.53.27,1,.5,1.46.77s.82.52,1.18.75.64.49.93.69l.42.3.34.29a7.32,7.32,0,0,0,.63.47,5.45,5.45,0,0,0,.49.36A1.45,1.45,0,0,0,138.3,11.83Z"/></g><g id="11419cea-25f0-41aa-9294-a6fce9bca018" data-name="&lt;Group&gt;"><path id="e015dab8-0db2-45a4-a65f-741ab558edc0" data-name="&lt;Path&gt;" class="18f9de91-3231-48c1-a2ed-f3b27ff309aa" d="M112.26,80.14c.39.55,1.21,1,3.16.54s5.1-1.79,10.88-3.49a71.9,71.9,0,0,1,9.65-2,53.3,53.3,0,0,1,10.1-.36A50.6,50.6,0,0,1,154,76c1,.24,1.77.49,2.32.63l.85.23-.73-.49c-.47-.31-1.15-.8-2-1.33a40,40,0,0,0-7.66-3.5,41.44,41.44,0,0,0-11-2,37.2,37.2,0,0,0-11.23,1.19l-2.37.76c-.74.23-1.41.56-2,.82A23.71,23.71,0,0,0,116.84,74a16.47,16.47,0,0,0-2.26,1.6A10.17,10.17,0,0,0,113.14,77C111.71,78.71,111.89,79.6,112.26,80.14Z"/></g><g id="0ddf5b5b-8398-41e5-852d-8dcb8a9d20b2" data-name="&lt;Group&gt;"><path id="4b5c62cc-076d-4e06-a629-0cabf332541c" data-name="&lt;Path&gt;" class="18f9de91-3231-48c1-a2ed-f3b27ff309aa" d="M59.14,69.29l-.31-.38c-.2-.25-.52-.57-.86-1A21.62,21.62,0,0,1,54,50.3a21.42,21.42,0,0,1,7.36-11.43,20.26,20.26,0,0,1,4-2.55c.52-.28,1-.42,1.24-.57l.44-.19-.48-.09a11,11,0,0,0-1.39-.18,15.3,15.3,0,0,0-5.28.59,17.46,17.46,0,0,0-3.5,1.43,18.26,18.26,0,0,0-3.59,2.57,17.21,17.21,0,0,0-4.5,19.22A18.92,18.92,0,0,0,50.37,63a17.67,17.67,0,0,0,2.5,2.83,15,15,0,0,0,4.47,2.86,9.29,9.29,0,0,0,1.33.46Z"/></g><g id="8e1e800b-c6b5-407a-adcc-c0a3343512d7" data-name="&lt;Group&gt;"><path id="5bacc511-2131-41ac-ba73-aeaf2b4329a0" data-name="&lt;Path&gt;" class="18f9de91-3231-48c1-a2ed-f3b27ff309aa" d="M76.76,67.8l-.33-.09c-.22-.06-.53-.12-.91-.25a17.13,17.13,0,0,1-3-1.19,18.92,18.92,0,0,1-10-13.55,18.36,18.36,0,0,1-.26-3.17c0-.41,0-.72,0-.94l0-.34-.27.2a8.27,8.27,0,0,0-.73.66,10.24,10.24,0,0,0-2.08,3,12.1,12.1,0,0,0-1.07,5.59,12.26,12.26,0,0,0,8.22,11.17,12.23,12.23,0,0,0,5.65.64,10.24,10.24,0,0,0,3.53-1.08,7.46,7.46,0,0,0,.85-.51Z"/></g><g id="806b495a-57f5-4bd3-938b-0253d36c4f5c" data-name="&lt;Group&gt;"><path id="2f1adb67-8740-4ce5-8353-98e575592ac3" data-name="&lt;Path&gt;" class="18f9de91-3231-48c1-a2ed-f3b27ff309aa" d="M99.74,48.63s.27.62.81,1.73l.46.92c.17.33.39.67.61,1a26.09,26.09,0,0,0,1.63,2.49l1,1.4c.37.48.8.94,1.22,1.43a37,37,0,0,0,2.93,3A37.66,37.66,0,0,0,116.31,66a37.77,37.77,0,0,0,9,3.12,34.61,34.61,0,0,0,4.12.59c.66.05,1.28.12,1.88.13h1.74a26,26,0,0,0,3-.17c.44,0,.84-.08,1.21-.13l1-.18c1.22-.22,1.87-.38,1.87-.38s-.64-.26-1.78-.66l-.94-.32-1.11-.43c-.79-.31-1.68-.6-2.65-1L132.15,66c-.52-.21-1.05-.46-1.61-.69-1.12-.44-2.27-1-3.49-1.52-2.42-1.12-5-2.37-7.73-3.72s-5.25-2.73-7.59-4c-1.14-.67-2.28-1.27-3.3-1.9-.51-.31-1-.59-1.51-.89l-1.38-.86c-.9-.53-1.67-1.08-2.39-1.53l-1-.63-.82-.57C100.33,49,99.74,48.63,99.74,48.63Z"/></g><g id="415d6b67-7d78-4606-b5c0-8078141e6f7a" data-name="&lt;Group&gt;"><path id="791d7a3e-3d3d-4467-9c86-767baa8b05d6" data-name="&lt;Path&gt;" class="18f9de91-3231-48c1-a2ed-f3b27ff309aa" d="M135.85,38.3s.62.68,1.74,1.78l4.6,4.47,3.06,2.93c1.1,1,2.23,2.12,3.44,3.2,2.4,2.24,5,4.56,7.85,6.86s5.62,4.41,8.3,6.31c1.3,1,2.63,1.85,3.83,2.72L172.15,69l5.31,3.61c1.29.88,2.09,1.34,2.09,1.34s-.07-.89-.33-2.47L179,70.15c-.1-.48-.23-1-.37-1.53A34.05,34.05,0,0,0,177.49,65c-.24-.66-.51-1.35-.8-2.07s-.65-1.43-1-2.18a40.49,40.49,0,0,0-2.63-4.59,39.52,39.52,0,0,0-18.44-15,42.63,42.63,0,0,0-5-1.65c-.8-.2-1.57-.41-2.33-.55s-1.5-.26-2.19-.37a33.86,33.86,0,0,0-3.81-.36l-1.57-.06-1.34,0C136.74,38.19,135.85,38.3,135.85,38.3Z"/></g><g id="ca1d86a3-daff-465f-b5fd-0fa2997a2652" data-name="&lt;Group&gt;"><path id="ecf049fe-552b-4f4a-a67d-18c901d1e1a8" data-name="&lt;Path&gt;" class="18f9de91-3231-48c1-a2ed-f3b27ff309aa" d="M153,16.7a57.59,57.59,0,0,0,8.78,21.67,57.55,57.55,0,0,0,17.05,16A57.65,57.65,0,0,0,170,32.7,57.55,57.55,0,0,0,153,16.7Z"/></g><g id="888c2ac2-e4ed-4c39-9349-2b4fa68c8607" data-name="&lt;Group&gt;"><path id="667b0fd1-8e6f-4003-99b6-6614e9b906c7" data-name="&lt;Path&gt;" class="18f9de91-3231-48c1-a2ed-f3b27ff309aa" d="M157.49,36.62h.22a1.68,1.68,0,0,1,1.67,1.68A1.7,1.7,0,0,1,157.71,40h-.22a1.68,1.68,0,1,1,0-3.35Z"/></g><g id="ef036b95-4512-4766-98e6-e2004ef0e857" data-name="&lt;Group&gt;"><path id="01cfc9b6-c926-4f78-ae3f-c07d1772a116" data-name="&lt;Path&gt;" class="18f9de91-3231-48c1-a2ed-f3b27ff309aa" d="M152.8,37.29a1.67,1.67,0,0,1,0-3.34,1.67,1.67,0,0,1,0,3.34Z"/></g><g id="24a5df89-393a-444f-91eb-f68021177ac4" data-name="&lt;Group&gt;"><path id="197cdcf7-01dd-4d5b-8022-cc0643eb23a0" data-name="&lt;Path&gt;" class="18f9de91-3231-48c1-a2ed-f3b27ff309aa" d="M146.78,35.73a1.68,1.68,0,0,1,0-3.35,1.68,1.68,0,0,1,0,3.35Z"/></g><g id="63129fed-b5a9-492a-a759-09fa5f64b0b3" data-name="&lt;Group&gt;"><path id="7ecf53b4-7918-4d83-be31-b3d42f0c0ca1" data-name="&lt;Path&gt;" class="18f9de91-3231-48c1-a2ed-f3b27ff309aa" d="M141,36.18a1.68,1.68,0,0,1,0-3.35,1.68,1.68,0,0,1,0,3.35Z"/></g><g id="1ef89081-9993-4c93-93d1-09b295ccd076" data-name="&lt;Group&gt;"><path id="39198e47-c301-4864-bf8f-0cb3b0c5f08b" data-name="&lt;Path&gt;" class="18f9de91-3231-48c1-a2ed-f3b27ff309aa" d="M130.26,12.3H130a1.68,1.68,0,0,1-1.67-1.68A1.7,1.7,0,0,1,130,9h.22a1.68,1.68,0,1,1,0,3.35Z"/></g><g id="bc49832b-4923-4543-a13d-d75a9ce882da" data-name="&lt;Group&gt;"><path id="a8decc83-1ae1-42f4-9434-a3fc148322d1" data-name="&lt;Path&gt;" class="18f9de91-3231-48c1-a2ed-f3b27ff309aa" d="M125.13,11.41a1.68,1.68,0,0,1,0-3.35,1.68,1.68,0,0,1,0,3.35Z"/></g><g id="e980e08b-dcd5-4ef9-a1a9-1f41f1d9cd27" data-name="&lt;Group&gt;"><path id="1896bbbb-df6a-463c-97d3-f9483c03639e" data-name="&lt;Path&gt;" class="18f9de91-3231-48c1-a2ed-f3b27ff309aa" d="M119.77,13a1.68,1.68,0,0,1,0-3.35,1.68,1.68,0,0,1,0,3.35Z"/></g><g id="26c939e4-aedd-49a9-aa0a-f6406dea3369" data-name="&lt;Group&gt;"><path id="956b3031-727e-4812-b4c4-e8a72c082e61" data-name="&lt;Path&gt;" class="18f9de91-3231-48c1-a2ed-f3b27ff309aa" d="M115.76,18.55a1.68,1.68,0,0,1,0-3.35,1.68,1.68,0,0,1,0,3.35Z"/></g><g id="c87174d7-0886-49bd-90da-731a6c341642" data-name="&lt;Group&gt;"><path id="418e58b5-edf1-41e9-a6b1-e0935f4093f2" data-name="&lt;Path&gt;" class="18f9de91-3231-48c1-a2ed-f3b27ff309aa" d="M43.8,14.82l.5-.24c.33-.15.77-.44,1.41-.7a27.29,27.29,0,0,1,5.5-1.8,33.22,33.22,0,0,1,8.68-.69,41.71,41.71,0,0,1,10.64,2,68.12,68.12,0,0,1,18.25,9.78c2.23,1.61,4,3,5.23,4l1.91,1.53s-.58-.65-1.67-1.79-2.69-2.75-4.77-4.61a62.6,62.6,0,0,0-7.71-5.93,46.19,46.19,0,0,0-10.53-5.11A35.33,35.33,0,0,0,59.92,9.49a29.33,29.33,0,0,0-9,1.5,23.86,23.86,0,0,0-5.37,2.58c-.6.36-1,.72-1.3.92Z"/><path id="2b6c015d-f858-4dfe-ba70-ddb86260c516" data-name="&lt;Path&gt;" class="18f9de91-3231-48c1-a2ed-f3b27ff309aa" d="M44.56,8.83l.55-.19c.36-.12.88-.32,1.57-.55a38.2,38.2,0,0,1,5.92-1.3A44.73,44.73,0,0,1,72,8.78a73.12,73.12,0,0,1,17.58,8.9c2.12,1.42,3.79,2.65,4.95,3.49l1.79,1.33L94.8,20.9c-1-1-2.52-2.45-4.5-4.12a60.31,60.31,0,0,0-7.37-5.36A48.32,48.32,0,0,0,72.74,6.63,39.22,39.22,0,0,0,61.57,4.72a34.88,34.88,0,0,0-9.18,1,30.85,30.85,0,0,0-5.84,2.09c-.66.32-1.15.6-1.49.78Z"/><path id="872c4a53-5ad9-47b7-92d6-d47c09f0ef8b" data-name="&lt;Path&gt;" class="18f9de91-3231-48c1-a2ed-f3b27ff309aa" d="M50.46,2.3,51,2.23c.31-.06.78-.12,1.38-.18s1.33-.16,2.18-.19l1.36-.08,1.52,0a48.62,48.62,0,0,1,7.38.54,54.75,54.75,0,0,1,8.71,2.06A74.25,74.25,0,0,1,87.94,11c1.74,1,3.11,1.91,4.06,2.52l1.08.71.38.25-.34-.3-1-.84c-.87-.73-2.13-1.78-3.79-3A52.8,52.8,0,0,0,74,2.93a42.84,42.84,0,0,0-9-1.9,40.7,40.7,0,0,0-7.57,0l-1.54.15-1.36.22c-.85.12-1.58.31-2.17.44s-1,.24-1.36.34Z"/></g><g id="9aa30327-d92a-4b1f-96fb-6f68a64801f0" data-name="&lt;Group&gt;"><path id="4900344c-0514-4301-9d62-072314f9a0d4" data-name="&lt;Path&gt;" class="18f9de91-3231-48c1-a2ed-f3b27ff309aa" d="M141.79,57.41a43.39,43.39,0,0,0,13,10.3,43.3,43.3,0,0,0,16,4.33,41.23,41.23,0,0,0-29.06-14.63Z"/></g><g id="332e8f23-eb1f-4c06-a2ad-27b4c32ef270" data-name="&lt;Group&gt;"><path id="6d433af5-1546-4801-9b45-003cc98ed0b8" data-name="&lt;Path&gt;" class="18f9de91-3231-48c1-a2ed-f3b27ff309aa" d="M7.13,32.45a2.44,2.44,0,0,0-1.73,0,5.15,5.15,0,0,0-2.31,2A16.25,16.25,0,0,0,.73,40.12,30.19,30.19,0,0,0,.27,50.91,34.2,34.2,0,0,0,5.32,64.69,37.07,37.07,0,0,0,15.24,75a36,36,0,0,0,9.51,4.76,29.83,29.83,0,0,0,3,.81l1.07.23-.9-.62c-.58-.39-1.4-1-2.38-1.79A41.46,41.46,0,0,1,12.85,60.83a50,50,0,0,1-2.64-11.19,82.07,82.07,0,0,1-.53-8.44,44.82,44.82,0,0,0-.3-5.05,6.29,6.29,0,0,0-.9-2.65A2.75,2.75,0,0,0,7.13,32.45Z"/></g><g id="dfb9d8bf-7db9-4f68-a551-703356eec3af" data-name="&lt;Group&gt;"><path id="04a34f65-637c-40dd-b6cb-fb87cc097022" data-name="&lt;Path&gt;" class="18f9de91-3231-48c1-a2ed-f3b27ff309aa" d="M289.52,51.78a1.15,1.15,0,0,1-.92.27c-.45,0-1.08-.15-2-.27a11.45,11.45,0,0,0-3.47,0A12.57,12.57,0,0,0,278,54a12,12,0,0,0-2.67,2.61,8.42,8.42,0,0,0-1.62,3.66,11.43,11.43,0,0,0,.28,5,15.92,15.92,0,0,0,2.85,5.56,19.78,19.78,0,0,0,5.59,4.92,22.49,22.49,0,0,0,8.16,2.68,20.47,20.47,0,0,0,2.37.2c.81,0,1.64,0,2.47,0a27.29,27.29,0,0,0,5.1-.89,26,26,0,0,0,5.1-2A25.14,25.14,0,0,0,308,74.23c.38-.28.8-.52,1.16-.83l1.11-.93a21.31,21.31,0,0,0,6.23-9.94,25.68,25.68,0,0,0,.39-12.73,26.21,26.21,0,0,0-2.24-6.17,23.42,23.42,0,0,0-3.88-5.24,23.11,23.11,0,0,0-2.56-2.17l-.68-.51a5.77,5.77,0,0,0-.7-.48l-1.47-.86a27.26,27.26,0,0,0-6.47-2.55A39.06,39.06,0,0,0,284.48,31a50.88,50.88,0,0,0-14.17,3.85,86.22,86.22,0,0,0-12.9,7.25c-4.06,2.75-7.93,5.7-11.66,8.63-7.45,5.87-14.46,11.62-21.4,16a76.68,76.68,0,0,1-19.4,9.1l-1.07.32-1.06.26-2,.48-1.94.34-.92.16-.9.1c-1.18.13-2.27.27-3.28.28s-1.93.09-2.76,0-1.55,0-2.18-.08l-1.59-.18-1.29-.14,1.3,0,1.59,0,2.16-.1c.82,0,1.72-.15,2.71-.27s2-.31,3.19-.53l.87-.17.89-.23,1.86-.49,1.94-.62,1-.33,1-.39a75.8,75.8,0,0,0,18.1-10.24c6.4-4.69,12.84-10.77,20-17.19,3.57-3.2,7.33-6.48,11.41-9.62a90.64,90.64,0,0,1,13.43-8.61,57.45,57.45,0,0,1,16-5.28,46.26,46.26,0,0,1,17.46.25,35.86,35.86,0,0,1,8.59,3l2,1.09a10,10,0,0,1,1,.61l1,.65a33.35,33.35,0,0,1,3.64,2.88,32,32,0,0,1,5.8,7.29A34.61,34.61,0,0,1,326,65.25a30.24,30.24,0,0,1-3.52,8.07l-1.2,1.84c-.46.57-.91,1.14-1.37,1.7a17,17,0,0,1-1.45,1.6c-.51.49-1,1-1.53,1.48l-1.62,1.35c-.53.45-1.12.81-1.67,1.21a34.2,34.2,0,0,1-3.44,2.08,36,36,0,0,1-7.14,2.73,36.42,36.42,0,0,1-7.1,1.14c-1.17,0-2.32.06-3.45,0a30.38,30.38,0,0,1-3.35-.35,31.14,31.14,0,0,1-11.75-4.31,28.09,28.09,0,0,1-7.95-7.68,23.53,23.53,0,0,1-3.83-9,7.44,7.44,0,0,1-.18-1.15l-.13-1.13c0-.76,0-1.51,0-2.24s.11-1.45.23-2.15.26-1.35.45-2a15.42,15.42,0,0,1,3.88-6.57,17.08,17.08,0,0,1,4.9-3.48,15,15,0,0,1,8.51-1.44,9.7,9.7,0,0,1,4.79,2,4.64,4.64,0,0,1,1.52,2A.92.92,0,0,1,289.52,51.78Z"/></g><g id="3d44ae9e-3b52-4bd4-aa4c-94d1558b757f" data-name="&lt;Group&gt;"><path id="33fe606c-392e-47f3-9382-ef2c0e8f0b67" data-name="&lt;Path&gt;" class="18f9de91-3231-48c1-a2ed-f3b27ff309aa" d="M324.43,18.65c-.26.43-.85.75-2.11.71-.63,0-1.39-.18-2.43-.29-.51-.07-1.08-.17-1.7-.3s-1.34-.17-2.1-.3a55.52,55.52,0,0,0-5.57-.49,49.29,49.29,0,0,0-7.76.43,55.13,55.13,0,0,0-10.14,2.42,59.4,59.4,0,0,0-12.21,5.73A116.53,116.53,0,0,0,267,36.21C262.5,39.9,257.94,44,253.25,48c-2.34,2-4.73,4.07-7.16,6s-4.83,3.86-7.3,5.69a105.87,105.87,0,0,1-15,9.54,77,77,0,0,1-14.58,5.76c-2.31.57-4.47,1.14-6.53,1.44-1,.16-2,.38-2.95.46l-2.73.28-1.27.13-1.2.05-2.19.07c-1.36.07-2.53,0-3.48,0l-2.92-.12,2.91-.32c.93-.1,2.08-.19,3.41-.45l2.12-.37,1.16-.21,1.22-.29,2.59-.63c.91-.21,1.82-.55,2.78-.83,1.94-.54,3.93-1.37,6-2.18A78,78,0,0,0,221.23,65a110.7,110.7,0,0,0,13.21-10.51c2.18-2,4.39-4.06,6.55-6.16s4.32-4.26,6.48-6.45c4.33-4.37,8.71-8.82,13.31-12.95A97.18,97.18,0,0,1,275.2,18a59.8,59.8,0,0,1,14.48-6.47A51.31,51.31,0,0,1,302,9.42a39.89,39.89,0,0,1,9.48.72A30.16,30.16,0,0,1,318,12.25c.85.41,1.6.79,2.26,1.17s1.19.81,1.66,1.16a9,9,0,0,1,2,1.93C324.7,17.6,324.69,18.23,324.43,18.65Z"/></g><g id="36c6bf31-b679-4c77-aecd-b933bcd88e62" data-name="&lt;Group&gt;"><path id="1f9e572c-c528-4dd2-99f8-aaae63f35dc5" data-name="&lt;Path&gt;" class="18f9de91-3231-48c1-a2ed-f3b27ff309aa" d="M229.87,24.57a1.22,1.22,0,0,1,1-.66,5,5,0,0,1,3,.74,13.46,13.46,0,0,1,4.85,4.62,19.92,19.92,0,0,1,3.05,11.31,22.55,22.55,0,0,1-1.61,7.53,27.86,27.86,0,0,1-3.94,6.81,34.12,34.12,0,0,1-5.35,5.45,44.93,44.93,0,0,1-5.77,4,78.74,78.74,0,0,1-9.76,4.7c-2.48,1-4,1.59-4,1.59l3.48-2.5c2.15-1.57,5.19-3.75,8.3-6.5a40.89,40.89,0,0,0,8.43-9.91A27.43,27.43,0,0,0,234.14,46a21.94,21.94,0,0,0,1-5.58,19.66,19.66,0,0,0-1.63-8.18A28.59,28.59,0,0,0,231.08,28a11.15,11.15,0,0,1-1.24-2.17A1.53,1.53,0,0,1,229.87,24.57Z"/></g><g id="4bd0459d-0ade-4935-ac68-9dbe19f597b3" data-name="&lt;Group&gt;"><path id="8a382456-9175-403b-9e0b-cca1dc320ec7" data-name="&lt;Path&gt;" class="18f9de91-3231-48c1-a2ed-f3b27ff309aa" d="M220.86,11.83c-.31-.13-.58-.44-.59-1.28a5,5,0,0,1,0-.73,8.81,8.81,0,0,1,.27-.93l.19-.56c.09-.19.19-.38.3-.59a8.75,8.75,0,0,1,.82-1.33,10.58,10.58,0,0,1,1.24-1.48,15,15,0,0,1,1.74-1.52A17.63,17.63,0,0,1,230.17.79a19,19,0,0,1,7.88-.63c.38,0,.76.13,1.15.2s.78.16,1.18.28l1.2.37,1.17.47a20.7,20.7,0,0,1,4.61,2.76,23.64,23.64,0,0,1,6.94,9.22A25.92,25.92,0,0,1,256,19.23a26.44,26.44,0,0,1,.33,6,32.67,32.67,0,0,1-2.74,11.21,41.81,41.81,0,0,1-5.45,9.08A69.63,69.63,0,0,1,236.48,56.9c-1.58,1.25-2.87,2.21-3.76,2.87l-1.38,1,1.19-1.22c.77-.8,1.88-2,3.24-3.43a75.36,75.36,0,0,0,9.62-12.49,40.88,40.88,0,0,0,3.93-8.78,29.57,29.57,0,0,0,1.38-9.71,21.82,21.82,0,0,0-2.21-9,19.6,19.6,0,0,0-5.27-6.64,15.45,15.45,0,0,0-3.15-1.93l-.77-.34L238.54,7a4.88,4.88,0,0,0-.75-.2c-.25-.06-.49-.13-.74-.18a15.48,15.48,0,0,0-5.41,0,17.11,17.11,0,0,0-4,1.27c-.53.27-1,.5-1.46.77s-.82.52-1.17.75-.65.49-.94.69l-.41.3-.35.29a7.32,7.32,0,0,1-.63.47,5.45,5.45,0,0,1-.49.36A1.45,1.45,0,0,1,220.86,11.83Z"/></g><g id="4e1223aa-dbdc-4064-98c0-e4cc535ac3f8" data-name="&lt;Group&gt;"><path id="7b1d9b48-d434-44b3-9725-d90de0cbfd0d" data-name="&lt;Path&gt;" class="18f9de91-3231-48c1-a2ed-f3b27ff309aa" d="M246.9,80.14c-.38.55-1.21,1-3.16.54s-5.1-1.79-10.88-3.49a71.9,71.9,0,0,0-9.65-2,53.3,53.3,0,0,0-10.1-.36A50.6,50.6,0,0,0,205.18,76c-1,.24-1.77.49-2.32.63l-.84.23.72-.49c.48-.31,1.15-.8,2-1.33a40.29,40.29,0,0,1,7.66-3.5,41.44,41.44,0,0,1,11-2,37.2,37.2,0,0,1,11.23,1.19c.84.26,1.63.51,2.37.76s1.41.56,2,.82A23.71,23.71,0,0,1,242.32,74a15.87,15.87,0,0,1,2.26,1.6A10.17,10.17,0,0,1,246,77C247.45,78.71,247.27,79.6,246.9,80.14Z"/></g><g id="e4a46eb1-ac98-44e9-a6f2-a44d7c32849a" data-name="&lt;Group&gt;"><path id="c39a8603-4ecd-448b-9766-5c743613d37f" data-name="&lt;Path&gt;" class="18f9de91-3231-48c1-a2ed-f3b27ff309aa" d="M300,69.29l.32-.38c.19-.25.52-.57.85-1a21,21,0,0,0,2.44-4,21.41,21.41,0,0,0,1.53-13.51,21.42,21.42,0,0,0-7.36-11.43,20.26,20.26,0,0,0-4-2.55c-.52-.28-.95-.42-1.23-.57l-.45-.19.48-.09a11.16,11.16,0,0,1,1.4-.18,15.25,15.25,0,0,1,5.27.59,17.46,17.46,0,0,1,3.5,1.43,18.62,18.62,0,0,1,3.6,2.57,17.18,17.18,0,0,1,4.49,19.22A19.39,19.39,0,0,1,308.8,63a17.7,17.7,0,0,1-2.51,2.83,15,15,0,0,1-4.47,2.86,9.29,9.29,0,0,1-1.33.46Z"/></g><g id="eb7bb702-09d2-4b8a-b54b-5b8eb418d83b" data-name="&lt;Group&gt;"><path id="6ddb0bdf-5a37-4364-bd6f-0a1da087eaf5" data-name="&lt;Path&gt;" class="18f9de91-3231-48c1-a2ed-f3b27ff309aa" d="M282.41,67.8l.33-.09c.21-.06.52-.12.9-.25a17.13,17.13,0,0,0,3-1.19,18.92,18.92,0,0,0,10-13.55,17.41,17.41,0,0,0,.26-3.17c0-.41,0-.72,0-.94l0-.34.27.2a7,7,0,0,1,.73.66,10.23,10.23,0,0,1,2.09,3,12.24,12.24,0,0,1,1.06,5.59,12.23,12.23,0,0,1-8.21,11.17,12.27,12.27,0,0,1-5.66.64,10.32,10.32,0,0,1-3.53-1.08,8.49,8.49,0,0,1-.85-.51Z"/></g><g id="9000b97d-4ed5-4fcf-b8af-9862a63b6208" data-name="&lt;Group&gt;"><path id="24db1294-0095-4bc7-a92c-0e8d668d55e1" data-name="&lt;Path&gt;" class="18f9de91-3231-48c1-a2ed-f3b27ff309aa" d="M259.42,48.63s-.26.62-.81,1.73l-.46.92c-.17.33-.38.67-.61,1a27.91,27.91,0,0,1-1.62,2.49l-1,1.4c-.37.48-.79.94-1.22,1.43a37,37,0,0,1-2.93,3A37.84,37.84,0,0,1,242.86,66a38,38,0,0,1-9,3.12,34.61,34.61,0,0,1-4.12.59c-.65.05-1.28.12-1.88.13h-1.74a26,26,0,0,1-3-.17c-.44,0-.84-.08-1.21-.13l-1-.18C219.68,69.17,219,69,219,69s.64-.26,1.78-.66l.94-.32,1.11-.43c.79-.31,1.68-.6,2.65-1L227,66c.52-.21,1.06-.46,1.61-.69,1.12-.44,2.27-1,3.49-1.52,2.42-1.12,5-2.37,7.74-3.72s5.24-2.73,7.58-4c1.14-.67,2.28-1.27,3.3-1.9.51-.31,1-.59,1.51-.89l1.38-.86c.9-.53,1.67-1.08,2.39-1.53l1-.63.82-.57C258.83,49,259.42,48.63,259.42,48.63Z"/></g><g id="bb75053b-8677-4717-921f-ad4ba466219a" data-name="&lt;Group&gt;"><path id="24a730b9-a02b-45cb-9e41-b44bf3c320dc" data-name="&lt;Path&gt;" class="18f9de91-3231-48c1-a2ed-f3b27ff309aa" d="M223.31,38.3s-.62.68-1.74,1.78L217,44.55l-3.06,2.93c-1.1,1-2.22,2.12-3.44,3.2-2.4,2.24-5,4.56-7.85,6.86S197,62,194.33,63.85c-1.31,1-2.63,1.85-3.84,2.72L187,69l-5.31,3.61c-1.29.88-2.08,1.34-2.08,1.34s.06-.89.33-2.47l.23-1.31c.1-.48.23-1,.37-1.53A36.49,36.49,0,0,1,181.67,65c.25-.66.51-1.35.8-2.07s.65-1.43,1-2.18a43.78,43.78,0,0,1,2.63-4.59,39.52,39.52,0,0,1,18.44-15,42.63,42.63,0,0,1,5-1.65c.8-.2,1.57-.41,2.33-.55s1.5-.26,2.2-.37a33.44,33.44,0,0,1,3.81-.36l1.57-.06,1.33,0C222.42,38.19,223.31,38.3,223.31,38.3Z"/></g><g id="46b75d19-140d-4a29-bd13-e8a7e851b928" data-name="&lt;Group&gt;"><path id="ca5fd16a-e640-4ec6-817d-bc1530c7ac7f" data-name="&lt;Path&gt;" class="18f9de91-3231-48c1-a2ed-f3b27ff309aa" d="M206.21,16.7a57.59,57.59,0,0,1-8.78,21.67,57.59,57.59,0,0,1-17,16,57.53,57.53,0,0,1,8.77-21.67A57.55,57.55,0,0,1,206.21,16.7Z"/></g><path id="d9433289-9560-4a98-8dec-858897eaa518" data-name="&lt;Path&gt;" class="18f9de91-3231-48c1-a2ed-f3b27ff309aa" d="M179.58,5.1C184.31,12,183,16.7,183,16.7s1.25-3,6.25-3,7.3,6.51,7.3,6.51c-12.3,3.68-17,15.29-17,15.29s-4.66-11.61-17-15.29c0,0,2.29-6.51,7.3-6.51s6.26,3,6.26,3S174.85,12,179.58,5.1Z"/><g id="f6961755-5210-4c77-9d6f-cd89596ffada" data-name="&lt;Group&gt;"><path id="962bdc10-73ea-40f8-a855-75d6860efe65" data-name="&lt;Path&gt;" class="18f9de91-3231-48c1-a2ed-f3b27ff309aa" d="M201.67,36.62h-.22a1.68,1.68,0,0,0,0,3.35h.22a1.68,1.68,0,1,0,0-3.35Z"/></g><g id="35e21bac-4608-403f-bb43-77f7642b0ebe" data-name="&lt;Group&gt;"><path id="2a128d92-5fba-4527-a8ae-e7c72d1879a4" data-name="&lt;Path&gt;" class="18f9de91-3231-48c1-a2ed-f3b27ff309aa" d="M206.36,37.29a1.67,1.67,0,0,0,0-3.34,1.67,1.67,0,0,0,0,3.34Z"/></g><g id="5d4d577b-eea2-43b7-b848-b4c6eb7c1335" data-name="&lt;Group&gt;"><path id="6250e354-d817-48da-b26b-17be4c0d3062" data-name="&lt;Path&gt;" class="18f9de91-3231-48c1-a2ed-f3b27ff309aa" d="M212.39,35.73a1.68,1.68,0,0,0,0-3.35,1.68,1.68,0,0,0,0,3.35Z"/></g><g id="f5305e59-4e29-4c94-9099-58c44d5f4618" data-name="&lt;Group&gt;"><path id="a4a3f58e-72f5-410e-a1a7-c48331b16412" data-name="&lt;Path&gt;" class="18f9de91-3231-48c1-a2ed-f3b27ff309aa" d="M218.19,36.18a1.68,1.68,0,0,0,0-3.35,1.68,1.68,0,0,0,0,3.35Z"/></g><g id="8c8d9c92-87d7-4944-9189-d67576ba1eb1" data-name="&lt;Group&gt;"><path id="03f1cf96-0cb8-4929-9555-1a61a43a5457" data-name="&lt;Path&gt;" class="18f9de91-3231-48c1-a2ed-f3b27ff309aa" d="M228.9,12.3h.22a1.68,1.68,0,1,0,0-3.35h-.22a1.68,1.68,0,0,0,0,3.35Z"/></g><g id="b300e02a-bddf-4c8f-9090-15ccbf7b59d1" data-name="&lt;Group&gt;"><path id="bd269a0b-7e98-4605-9ef4-9b32f3820ce4" data-name="&lt;Path&gt;" class="18f9de91-3231-48c1-a2ed-f3b27ff309aa" d="M234,11.41a1.68,1.68,0,0,0,0-3.35,1.68,1.68,0,0,0,0,3.35Z"/></g><g id="f67ca72c-59e5-4428-a254-e42d7c2b9f20" data-name="&lt;Group&gt;"><path id="eb438b72-6517-47d7-8937-33a7c734a0f5" data-name="&lt;Path&gt;" class="18f9de91-3231-48c1-a2ed-f3b27ff309aa" d="M239.39,13a1.68,1.68,0,0,0,0-3.35,1.68,1.68,0,0,0,0,3.35Z"/></g><g id="75736933-59d8-4785-9b3a-a3cbf9d27333" data-name="&lt;Group&gt;"><path id="8c713dc2-c52c-4b4d-8147-4d7d4b92a7ac" data-name="&lt;Path&gt;" class="18f9de91-3231-48c1-a2ed-f3b27ff309aa" d="M243.4,18.55a1.68,1.68,0,0,0,0-3.35,1.68,1.68,0,0,0,0,3.35Z"/></g><g id="73a769e5-ba0c-42af-9c5d-8d1317998b0b" data-name="&lt;Group&gt;"><path id="e4ade565-d890-44e8-9a53-f5974a893b1a" data-name="&lt;Path&gt;" class="18f9de91-3231-48c1-a2ed-f3b27ff309aa" d="M315.36,14.82l-.49-.24c-.34-.15-.78-.44-1.42-.7a27.29,27.29,0,0,0-5.5-1.8,33.22,33.22,0,0,0-8.68-.69,41.79,41.79,0,0,0-10.64,2,67.89,67.89,0,0,0-18.24,9.78c-2.23,1.61-4,3-5.24,4l-1.91,1.53s.58-.65,1.67-1.79,2.69-2.75,4.77-4.61a63.37,63.37,0,0,1,7.71-5.93,46.19,46.19,0,0,1,10.53-5.11,35.33,35.33,0,0,1,11.32-1.74,29.27,29.27,0,0,1,9,1.5,23.65,23.65,0,0,1,5.37,2.58c.6.36,1,.72,1.3.92Z"/><path id="942f88ac-f2ee-428a-b6f6-4a7d3a849a18" data-name="&lt;Path&gt;" class="18f9de91-3231-48c1-a2ed-f3b27ff309aa" d="M314.61,8.83l-.55-.19c-.37-.12-.89-.32-1.58-.55a38.2,38.2,0,0,0-5.92-1.3,44.73,44.73,0,0,0-19.44,2,73.12,73.12,0,0,0-17.58,8.9c-2.12,1.42-3.79,2.65-5,3.49L262.8,22.5l1.56-1.6c1-1,2.52-2.45,4.5-4.12a60.31,60.31,0,0,1,7.37-5.36,48.32,48.32,0,0,1,10.19-4.79,39.33,39.33,0,0,1,11.17-1.91,34.88,34.88,0,0,1,9.18,1,30.85,30.85,0,0,1,5.84,2.09c.66.32,1.15.6,1.49.78Z"/><path id="369be862-f7eb-46e7-a37c-d59f54c3b7e1" data-name="&lt;Path&gt;" class="18f9de91-3231-48c1-a2ed-f3b27ff309aa" d="M308.7,2.3l-.48-.07c-.32-.06-.79-.12-1.39-.18s-1.33-.16-2.18-.19l-1.36-.08-1.52,0a48.62,48.62,0,0,0-7.38.54,54.75,54.75,0,0,0-8.71,2.06A74.53,74.53,0,0,0,271.22,11c-1.74,1-3.11,1.91-4.06,2.52l-1.08.71-.38.25.34-.3,1-.84c.87-.73,2.13-1.78,3.79-3a52.8,52.8,0,0,1,14.4-7.48,42.79,42.79,0,0,1,9-1.9,40.59,40.59,0,0,1,7.56,0l1.54.15,1.36.22c.85.12,1.58.31,2.17.44s1.05.24,1.36.34Z"/></g><g id="06575a6f-c967-4373-a286-6b9c44ab6474" data-name="&lt;Group&gt;"><path id="d0551516-264d-4f9d-9baa-df96a3dc0914" data-name="&lt;Path&gt;" class="18f9de91-3231-48c1-a2ed-f3b27ff309aa" d="M217.37,57.41a43.23,43.23,0,0,1-13,10.3,43.25,43.25,0,0,1-16,4.33,41.28,41.28,0,0,1,29.06-14.63Z"/></g><g id="4cadda52-b16c-44a3-95e6-6c47dc99700c" data-name="&lt;Group&gt;"><path id="8d6277fa-5687-450a-ab43-9062770bf0b1" data-name="&lt;Path&gt;" class="18f9de91-3231-48c1-a2ed-f3b27ff309aa" d="M352,32.45a2.44,2.44,0,0,1,1.73,0,5.15,5.15,0,0,1,2.31,2,16.25,16.25,0,0,1,2.36,5.67,30.19,30.19,0,0,1,.46,10.79,34.2,34.2,0,0,1-5.05,13.78A37.07,37.07,0,0,1,343.92,75a36,36,0,0,1-9.51,4.76,29.06,29.06,0,0,1-3,.81l-1.08.23.9-.62c.58-.39,1.4-1,2.38-1.79a41.58,41.58,0,0,0,12.66-17.58A50.54,50.54,0,0,0,349,49.64a82.07,82.07,0,0,0,.53-8.44,44.82,44.82,0,0,1,.3-5.05,6.43,6.43,0,0,1,.9-2.65A2.75,2.75,0,0,1,352,32.45Z"/></g></g></g></svg>