<svg xmlns="http://www.w3.org/2000/svg" viewBox="0 0 360.16 155.75"><defs><style>.\36 b65d5b4-8539-4641-8610-52e8be4af8a9,.\39 e6d7eb9-4d74-445c-a587-dbc1f2c065f0{fill:#da1a5d;stroke:#da1a5d;stroke-miterlimit:10;}.\36 b65d5b4-8539-4641-8610-52e8be4af8a9{stroke-width:1.43px;}</style></defs><title>Asset 1</title><g id="fab9de24-6dc1-4e04-b6f9-627e92ba3a7e" data-name="Layer 2"><g id="21f86c11-3569-4af5-8570-d9b319d79df8" data-name="tagline"><path class="9e6d7eb9-4d74-445c-a587-dbc1f2c065f0" d="M152.12,154.87c0,.22-.25.33-.69.33-1.56,0-3.12-.85-4.71-2.54a20.44,20.44,0,0,1-3.88-6.3c-.4,0-1,.09-1.82.12l-.72,6a1.8,1.8,0,0,0,0,.31.67.67,0,0,0,.31.64,3.64,3.64,0,0,0,1.23.33c.48.09.71.27.67.56s-.11.43-.24.48a1.85,1.85,0,0,1-.6,0,42.85,42.85,0,0,0-5.35.11.87.87,0,0,1-.48,0c-.08-.06-.12-.21-.11-.45s.27-.38.67-.42a2.14,2.14,0,0,0,1.13-.4,1.87,1.87,0,0,0,.4-1.13l1.67-13.67c0-.11,0-.2,0-.29,0-.73-.42-1.19-1.27-1.38-.5-.11-.74-.28-.71-.5s.11-.42.23-.49a1.2,1.2,0,0,1,.68,0,11.29,11.29,0,0,0,1.7.09l1.92-.05c1,0,2,0,2.83,0a6.54,6.54,0,0,1,4,1.16,3.78,3.78,0,0,1,1.52,3.16c0,2.52-1.32,4.2-4,5.07a11.44,11.44,0,0,1-1.19.34,23.78,23.78,0,0,0,3,5.7c1.19,1.62,2.33,2.54,3.39,2.75A.41.41,0,0,1,152.12,154.87Zm-4.29-14.26a3.3,3.3,0,0,0-.9-2.61,4.8,4.8,0,0,0-3.2-.84,1.9,1.9,0,0,0-1.38.36,2.38,2.38,0,0,0-.36,1.19l-.85,6.63a12.19,12.19,0,0,0,4.32-.73A3.94,3.94,0,0,0,147.83,140.61Z"/><path class="9e6d7eb9-4d74-445c-a587-dbc1f2c065f0" d="M162.88,145.66a3.07,3.07,0,0,1-1.62,2.59,21.28,21.28,0,0,1-5.35,2.07,3.94,3.94,0,0,0,.77,2.48,2,2,0,0,0,1.58.75,4.53,4.53,0,0,0,2.58-.91c.33-.22.58-.28.76-.2a.6.6,0,0,1,.3.5.54.54,0,0,1-.21.41A6.83,6.83,0,0,1,157.5,155q-3.76,0-3.76-4.29a7.53,7.53,0,0,1,1.87-5.28,5.48,5.48,0,0,1,4.23-2C161.87,143.47,162.88,144.2,162.88,145.66Zm-2.28.53a1.56,1.56,0,0,0-.42-1.12,1.44,1.44,0,0,0-1.09-.43,2.56,2.56,0,0,0-2.07,1.25,6.55,6.55,0,0,0-1.09,3.51,15.15,15.15,0,0,0,3.69-1.55A2,2,0,0,0,160.6,146.19Z"/><path class="9e6d7eb9-4d74-445c-a587-dbc1f2c065f0" d="M176.38,152.64Q174.7,155,173.26,155c-.86,0-1.29-.44-1.29-1.34a16.07,16.07,0,0,1,.32-2.68c0-.1,0-.15-.07-.16s-.14,0-.19.13q-2.47,4.2-4.94,4.2c-1.65,0-2.48-.93-2.48-2.77a8.79,8.79,0,0,1,2.65-6.2q2.44-2.5,4.86-2.51a4.9,4.9,0,0,1,1.57.29c.14.05.3,0,.5-.26s.57-.53.78-.53a.76.76,0,0,1,.36.12.31.31,0,0,1,.18.31,5,5,0,0,1-.24.86,23.37,23.37,0,0,0-1.34,7.62c0,.9.15,1.35.44,1.35s.8-.43,1.51-1.29l.07,0a.41.41,0,0,1,.29.18.56.56,0,0,1,.16.32A.1.1,0,0,1,176.38,152.64Zm-3.85-6.08A1.38,1.38,0,0,0,171,145q-1.37,0-2.76,1.89a7,7,0,0,0-1.48,4.3c0,1.35.49,2,1.48,2s1.95-.91,3-2.71A8.21,8.21,0,0,0,172.53,146.56Z"/><path class="9e6d7eb9-4d74-445c-a587-dbc1f2c065f0" d="M183.56,135.68Q182,144.7,181,150c-.37,1.93-.55,2.92-.55,3,0,.25.17.38.52.38s.81-.43,1.52-1.28a.15.15,0,0,1,.1,0,.43.43,0,0,1,.29.17.49.49,0,0,1,.15.33.13.13,0,0,1,0,.1q-1.89,2.28-3.27,2.28c-.94,0-1.4-.35-1.4-1a31.06,31.06,0,0,1,.61-3.9q1.08-5.55,2.24-12.85c.11-.65,0-1-.23-1a13.49,13.49,0,0,0-2,.41q-.33.09-.33-.54,0-.18.09-.21a13.53,13.53,0,0,1,3.84-1.4c.69,0,1,.32,1,1A1.13,1.13,0,0,1,183.56,135.68Z"/><path class="9e6d7eb9-4d74-445c-a587-dbc1f2c065f0" d="M190.67,152.7q-1.84,2.28-3.21,2.28c-1,0-1.42-.37-1.42-1.11a31,31,0,0,1,.89-3.83c.71-2.74,1.07-4.23,1.07-4.49s-.17-.41-.52-.41-.78.43-1.49,1.31a.1.1,0,0,1-.09,0,.46.46,0,0,1-.31-.18.55.55,0,0,1-.16-.35.15.15,0,0,1,0-.1c1.24-1.54,2.32-2.31,3.22-2.31s1.4.39,1.4,1.17a22.32,22.32,0,0,1-.85,3.81,38.13,38.13,0,0,0-1.07,4.47c0,.27.16.41.48.41s.79-.43,1.53-1.28a.08.08,0,0,1,.07,0,.45.45,0,0,1,.29.18.53.53,0,0,1,.17.33A.13.13,0,0,1,190.67,152.7Zm.52-14.37a1.69,1.69,0,0,1-.56,1.22,1.66,1.66,0,0,1-1.19.56,1.57,1.57,0,0,1-1.12-.4,1.34,1.34,0,0,1-.44-1,1.6,1.6,0,0,1,.57-1.17,1.75,1.75,0,0,1,1.19-.54C190.68,137,191.19,137.42,191.19,138.33Z"/><path class="9e6d7eb9-4d74-445c-a587-dbc1f2c065f0" d="M203,144.41c-2.1,2.32-4.49,5-7.2,8a1.69,1.69,0,0,0-.27.32s.08,0,.16,0c.43,0,.79-.06,1.09-.06s.68.05,1.38.14a13.25,13.25,0,0,0,1.41.13,2.45,2.45,0,0,0,2-1.14.37.37,0,0,1,.54-.11c.25.06.31.21.19.43a6.28,6.28,0,0,0-.5,1.14A2.18,2.18,0,0,1,199.6,155a15.49,15.49,0,0,1-2.28-.28,16.69,16.69,0,0,0-2.42-.27,3.88,3.88,0,0,0-2,.55.11.11,0,0,1-.07,0,.41.41,0,0,1-.3-.18.55.55,0,0,1-.16-.33.13.13,0,0,1,0-.1q4.76-5.33,7.15-7.92a1.27,1.27,0,0,0,.27-.34s-.06,0-.14,0-.59,0-1.14,0a11.5,11.5,0,0,1-1.27-.14,10.72,10.72,0,0,0-1.29-.13,2,2,0,0,0-1.07.22,3.21,3.21,0,0,0-.8.92c-.13.22-.31.25-.55.11s-.25-.21-.15-.43a9.48,9.48,0,0,0,.48-1.14,3.92,3.92,0,0,1,.62-1.37,1.93,1.93,0,0,1,1.36-.36,15.71,15.71,0,0,1,2.23.28,14.49,14.49,0,0,0,2.36.28,3.25,3.25,0,0,0,1.9-.56l.07,0a.49.49,0,0,1,.35.2.56.56,0,0,1,.2.35A.12.12,0,0,1,203,144.41Z"/><path class="9e6d7eb9-4d74-445c-a587-dbc1f2c065f0" d="M215.91,152.64c-1.12,1.54-2.16,2.31-3.13,2.31s-1.28-.44-1.28-1.34a15.85,15.85,0,0,1,.31-2.68c0-.1,0-.15-.07-.16a.18.18,0,0,0-.18.13c-1.66,2.8-3.3,4.2-4.94,4.2s-2.48-.93-2.48-2.77a8.75,8.75,0,0,1,2.65-6.2q2.44-2.5,4.85-2.51a4.81,4.81,0,0,1,1.57.29c.14.05.31,0,.5-.26s.58-.53.79-.53a.7.7,0,0,1,.35.12.31.31,0,0,1,.19.31,5,5,0,0,1-.24.86,23.13,23.13,0,0,0-1.35,7.62q0,1.35.45,1.35c.29,0,.8-.43,1.51-1.29l.07,0c.09,0,.18.06.29.18a.54.54,0,0,1,.15.32S215.92,152.63,215.91,152.64Zm-3.85-6.08a1.39,1.39,0,0,0-1.59-1.54c-.9,0-1.82.63-2.75,1.89a7.06,7.06,0,0,0-1.49,4.3c0,1.35.5,2,1.49,2s1.94-.91,3-2.71A8.32,8.32,0,0,0,212.06,146.56Z"/><path class="9e6d7eb9-4d74-445c-a587-dbc1f2c065f0" d="M229.28,152.7c-1.13,1.52-2.16,2.28-3.1,2.28s-1.45-.39-1.45-1.17a31.53,31.53,0,0,1,.7-3.77,27.82,27.82,0,0,0,.61-3.26c0-1-.45-1.47-1.34-1.47-.7,0-1.45.64-2.27,1.92a13.91,13.91,0,0,0-1.85,4.86l-.42,2.11c-.08.42-.48.65-1.23.7a1,1,0,0,1-.6-.09.35.35,0,0,1-.12-.38c.23-1.32.47-2.63.7-3.94a25.91,25.91,0,0,0,.38-4c0-.92-.15-1.37-.44-1.37s-.82.43-1.51,1.31a.16.16,0,0,1-.09,0,.43.43,0,0,1-.3-.19.58.58,0,0,1-.16-.34.2.2,0,0,1,0-.09q1.74-2.31,3.12-2.31c.88,0,1.32.46,1.32,1.39a12.25,12.25,0,0,1-.23,2c0,.07,0,.12.1.14s.14,0,.18-.11q2.16-3.57,4.45-3.57c1.62,0,2.43.84,2.43,2.54a33,33,0,0,1-.8,4.06,21.77,21.77,0,0,0-.56,3c0,.27.17.41.5.41s.74-.43,1.5-1.28l.06,0c.09,0,.18.06.29.18a.51.51,0,0,1,.15.32A.13.13,0,0,1,229.28,152.7Z"/><path class="9e6d7eb9-4d74-445c-a587-dbc1f2c065f0" d="M242.65,152.77c-1.16,1.53-2.2,2.3-3.13,2.3s-1.28-.46-1.28-1.37a13.59,13.59,0,0,1,.2-2c0-.13,0-.19-.06-.2s-.13,0-.2.17a10.61,10.61,0,0,1-1.82,2.31,3.84,3.84,0,0,1-2.51,1.26,2.51,2.51,0,0,1-2.1-1,4.23,4.23,0,0,1-.76-2.7,8.31,8.31,0,0,1,2-5.65c1.36-1.58,2.73-2.37,4.09-2.37a7.64,7.64,0,0,1,2.21.33s.11-.22.18-.7l.9-6c.11-.65,0-1-.25-1a12.11,12.11,0,0,0-2.31.41q-.18,0-.3-.24c-.09-.19-.09-.32,0-.37a14.55,14.55,0,0,1,4.05-1.54c.7,0,1,.32,1,1a1.7,1.7,0,0,1,0,.22q-.72,4.23-2.11,13a24.77,24.77,0,0,0-.34,3.48c0,.91.14,1.37.44,1.37s.79-.44,1.51-1.32l.07,0c.09,0,.18.06.29.18a.58.58,0,0,1,.15.34A.28.28,0,0,1,242.65,152.77Zm-3.85-6.26c0-1-.77-1.49-2.31-1.49a2.63,2.63,0,0,0-2.26,1.56,8.67,8.67,0,0,0-1,4.43c0,1.55.53,2.32,1.59,2.32.89,0,1.79-.85,2.69-2.54A9.2,9.2,0,0,0,238.8,146.51Z"/><path class="9e6d7eb9-4d74-445c-a587-dbc1f2c065f0" d="M254.42,148a7.52,7.52,0,0,1-1.77,5.08,5.22,5.22,0,0,1-4,1.95c-2.74,0-4.12-1.56-4.12-4.67a7.09,7.09,0,0,1,1.86-5,5.32,5.32,0,0,1,4-1.85,3.82,3.82,0,0,1,3,1.21A4.91,4.91,0,0,1,254.42,148Zm-2.3.78q0-4-2.31-4a2.47,2.47,0,0,0-2.18,1.36,7,7,0,0,0-.83,3.68q0,4,2.43,4a2.37,2.37,0,0,0,2.11-1.35A7.31,7.31,0,0,0,252.12,148.76Z"/><path class="9e6d7eb9-4d74-445c-a587-dbc1f2c065f0" d="M276.9,140a.66.66,0,0,1-.56.61c-.36,0-.58-.09-.64-.35a4.33,4.33,0,0,0-1.37-2.52,4.62,4.62,0,0,0-2.84-.72,3.83,3.83,0,0,0-2.31.68,2.41,2.41,0,0,0-1.05,2.06,3.21,3.21,0,0,0,.63,2,10.47,10.47,0,0,0,2.47,2.11,18.73,18.73,0,0,1,3.84,3.2,4.41,4.41,0,0,1,1,2.82,4.8,4.8,0,0,1-1.93,4,7.17,7.17,0,0,1-4.53,1.38c-3.29,0-5.11-.53-5.44-1.61a12.52,12.52,0,0,1-.41-2.4.79.79,0,0,1,.47-.9,1.06,1.06,0,0,1,.48-.11c.11,0,.21.17.32.4a4.8,4.8,0,0,0,4.66,3.34,4.86,4.86,0,0,0,2.94-.8,2.79,2.79,0,0,0,1.16-2.4,3.14,3.14,0,0,0-.66-2,14.31,14.31,0,0,0-2.94-2.49,18.93,18.93,0,0,1-3.42-2.83,4.09,4.09,0,0,1-1-2.67,4.49,4.49,0,0,1,1.77-3.71,7.11,7.11,0,0,1,4.54-1.4,11,11,0,0,1,3.59.46,3.59,3.59,0,0,1,.7.33.83.83,0,0,1,.45.58A12.7,12.7,0,0,1,276.9,140Z"/><path class="9e6d7eb9-4d74-445c-a587-dbc1f2c065f0" d="M289.54,148a7.52,7.52,0,0,1-1.77,5.08,5.22,5.22,0,0,1-4,1.95q-4.12,0-4.12-4.67a7.12,7.12,0,0,1,1.85-5,5.32,5.32,0,0,1,4-1.85,3.82,3.82,0,0,1,3,1.21A4.91,4.91,0,0,1,289.54,148Zm-2.3.78q0-4-2.31-4a2.47,2.47,0,0,0-2.18,1.36,6.94,6.94,0,0,0-.83,3.68q0,4,2.42,4a2.38,2.38,0,0,0,2.12-1.35A7.31,7.31,0,0,0,287.24,148.76Z"/><path class="9e6d7eb9-4d74-445c-a587-dbc1f2c065f0" d="M303.51,152.7c-1.13,1.52-2.17,2.28-3.1,2.28s-1.45-.39-1.45-1.17a31.53,31.53,0,0,1,.7-3.77,30.45,30.45,0,0,0,.61-3.26c0-1-.45-1.47-1.34-1.47-.7,0-1.45.64-2.27,1.92a13.92,13.92,0,0,0-1.86,4.86l-.41,2.11c-.08.42-.49.65-1.23.7a1,1,0,0,1-.6-.09.35.35,0,0,1-.12-.38c.23-1.32.47-2.63.69-3.94a24.86,24.86,0,0,0,.39-4c0-.92-.15-1.37-.44-1.37s-.82.43-1.52,1.31a.11.11,0,0,1-.08,0,.4.4,0,0,1-.3-.19A.53.53,0,0,1,291,146a.2.2,0,0,1,0-.09q1.74-2.31,3.12-2.31c.88,0,1.31.46,1.31,1.39a12.06,12.06,0,0,1-.22,2c0,.07,0,.12.1.14s.14,0,.18-.11q2.16-3.57,4.45-3.57c1.62,0,2.43.84,2.43,2.54a33,33,0,0,1-.8,4.06,21.77,21.77,0,0,0-.56,3c0,.27.17.41.5.41s.74-.43,1.5-1.28a.09.09,0,0,1,.06,0,.41.41,0,0,1,.28.18.49.49,0,0,1,.16.32A.13.13,0,0,1,303.51,152.7Z"/><path class="9e6d7eb9-4d74-445c-a587-dbc1f2c065f0" d="M316.94,152.7c-1.16,1.52-2.2,2.28-3.13,2.28s-1.44-.39-1.44-1.17a38.18,38.18,0,0,1,.77-3.77,27.46,27.46,0,0,0,.64-3.26,1.29,1.29,0,0,0-1.44-1.47c-.74,0-1.52.64-2.33,1.92a13,13,0,0,0-1.75,4.86l-.36,2.11c-.06.41-.51.64-1.34.7a1,1,0,0,1-.6-.09.33.33,0,0,1-.15-.38q1.33-9.54,2.12-17.24c.07-.65,0-1-.28-1a8.86,8.86,0,0,0-2,.38c-.09,0-.17,0-.25-.15a.89.89,0,0,1-.11-.4c0-.1,0-.16.07-.17a12.4,12.4,0,0,1,3.77-1.4c.82,0,1.23.32,1.23,1a1.13,1.13,0,0,1,0,.25q-.67,4.11-1.9,11.3a.12.12,0,0,0,.1.14c.09,0,.15,0,.2-.11a10.45,10.45,0,0,1,1.94-2.32,4.28,4.28,0,0,1,2.7-1.25,2.52,2.52,0,0,1,1.79.63,2.44,2.44,0,0,1,.75,1.91,35.05,35.05,0,0,1-.85,4.06c-.42,1.81-.64,2.8-.64,3s.16.41.47.41.77-.43,1.54-1.28l.08,0a.41.41,0,0,1,.29.16.49.49,0,0,1,.15.32A.21.21,0,0,1,316.94,152.7Z"/><path class="9e6d7eb9-4d74-445c-a587-dbc1f2c065f0" d="M328.79,148a7.52,7.52,0,0,1-1.77,5.08,5.2,5.2,0,0,1-4,1.95q-4.12,0-4.13-4.67a7.09,7.09,0,0,1,1.86-5,5.32,5.32,0,0,1,4-1.85,3.81,3.81,0,0,1,3,1.21A4.86,4.86,0,0,1,328.79,148Zm-2.29.78q0-4-2.32-4a2.47,2.47,0,0,0-2.18,1.36,7,7,0,0,0-.83,3.68q0,4,2.43,4a2.37,2.37,0,0,0,2.11-1.35A7.31,7.31,0,0,0,326.5,148.76Z"/><path class="9e6d7eb9-4d74-445c-a587-dbc1f2c065f0" d="M339.52,144.72a8.41,8.41,0,0,1-.28,1.37.45.45,0,0,1-.44.33,1.19,1.19,0,0,1-1-.67,2.42,2.42,0,0,0-2.13-1.2,1.92,1.92,0,0,0-1.27.41,1.17,1.17,0,0,0-.43.9,1.66,1.66,0,0,0,.53,1.2,10.54,10.54,0,0,0,1.08.83,16.17,16.17,0,0,1,2.44,1.93,2.43,2.43,0,0,1,.66,1.69,3.08,3.08,0,0,1-1.27,2.57,5.25,5.25,0,0,1-3.32,1c-2.26,0-3.39-.54-3.39-1.63s.21-1.67.62-1.67a1.3,1.3,0,0,1,1.11.79,2.53,2.53,0,0,0,2.33,1.41c1.2,0,1.81-.48,1.81-1.44a1.84,1.84,0,0,0-.34-1.12,6.39,6.39,0,0,0-1.45-1.19,11.85,11.85,0,0,1-2.19-1.78,2.34,2.34,0,0,1-.57-1.55,3.07,3.07,0,0,1,1.2-2.46,4.6,4.6,0,0,1,3-1C338.58,143.44,339.67,143.87,339.52,144.72Z"/></g><g id="0d4502e1-1943-40a9-a0f7-9b3b71724a32" data-name="logotipo"><path class="6b65d5b4-8539-4641-8610-52e8be4af8a9" d="M43.34,109.31q-2.07-1.74-6.74-1.74h-4q-11.21,0-11.93,8.29l.1,0c0,.25-.08.5-.1.77l2.71-1.32V115a5.1,5.1,0,0,1,1.77-4,6.81,6.81,0,0,1,4.51-1.54l-2.5,12.55a7.66,7.66,0,0,1-1.25,3.33,2.81,2.81,0,0,1-2.3.93l-.3,0a1.61,1.61,0,0,0-.37,0l-.21,0-2.05,2.07.68,0-.68.68,6.88.31,1.29,0q7.77,0,12.18-3.61a12.22,12.22,0,0,0,4.41-10c0-.14,0-.27,0-.41s0-.2,0-.31C45.4,112.37,44.71,110.47,43.34,109.31Zm-3.58,14.28a7.84,7.84,0,0,1-3,2.88,10.33,10.33,0,0,1-4.49.79,23.54,23.54,0,0,1-4.12-.35l-1.62-.27A9.38,9.38,0,0,0,29,124.28a12.11,12.11,0,0,0,1.58-4.42l2.14-10.72h1.75q7.48,0,7.67,6.61A14.62,14.62,0,0,1,39.76,123.59Z"/><path class="6b65d5b4-8539-4641-8610-52e8be4af8a9" d="M62.2,112.74c-1.26,0-2.64.74-4.16,2.22a19.76,19.76,0,0,0-3.93,5.72h0L54.6,118a11.39,11.39,0,0,0,.25-2.27c0-.12,0-.24,0-.36s0-.24,0-.35q0-2.31-2-2.31c-1.59,0-3.45,1.16-5.61,3.48L47,117.47l.19-.21-.19.92c1.84-2.1,3.25-3.16,4.24-3.16.48,0,.74.32.81.93a11.24,11.24,0,0,1-.18,1.35l-1.36,6.82-1,4.3h.17l-.17.73,3-.17,1-5.09q4.53-8,7.25-8a2.73,2.73,0,0,1,1.4.54L64,113.9a3.49,3.49,0,0,0-.39-.19l.39-.53A3.5,3.5,0,0,0,62.2,112.74Z"/><path class="6b65d5b4-8539-4641-8610-52e8be4af8a9" d="M75.91,113.58a2.59,2.59,0,0,0-2-.84q-3.42,0-6.44,3.47a11.11,11.11,0,0,0-3,7.41,2.46,2.46,0,0,0,0,.28c0,.15,0,.29,0,.44a5.2,5.2,0,0,0,1.23,3.59,4.11,4.11,0,0,0,3.23,1.39c2.08,0,4.61-1,7.57-3.1l.21-1.08-.16.11.16-.82Q73,127,70.38,127c-1.94,0-2.93-1.3-3-3.86V123a11.12,11.12,0,0,0,6.54-1.92,5.56,5.56,0,0,0,2.74-4.61c0-.11,0-.22,0-.33s0-.25,0-.38A3.1,3.1,0,0,0,75.91,113.58Zm-3.59,6.24a9,9,0,0,1-4.77,1.6,10.43,10.43,0,0,1,1.74-4.32c1-1.49,2.12-2.23,3.24-2.23q1.41,0,1.53,1.77A4.24,4.24,0,0,1,72.32,119.82Z"/><path class="6b65d5b4-8539-4641-8610-52e8be4af8a9" d="M93.46,127.1a.7.7,0,0,1-.78-.61c0-.38.14-.92.28-1.66l1.36-6.9,1-4.14h-.17l.17-.7c-1.45-.11-2.84-.17-4.18-.17A10.26,10.26,0,0,0,83,117a12.36,12.36,0,0,0-3.25,8c0,.12,0,.23,0,.34s0,.25,0,.37q0,3.69,3,3.69,1.94,0,4.16-2.21a19,19,0,0,0,3.8-5.73h.11l-.55,2.74a14.66,14.66,0,0,0-.34,2.38,3,3,0,0,0,0,.31,3.15,3.15,0,0,0,0,.4c0,1.41.68,2.11,2,2.11,1.63,0,3.46-1.09,5.51-3.28l.25-1.3-.18.19.18-.91C95.78,126.07,94.4,127.1,93.46,127.1Zm-2.1-8.85a27.94,27.94,0,0,1-4,5.76c-1.5,1.69-2.65,2.53-3.45,2.53s-1.21-.62-1.27-1.85a16.71,16.71,0,0,1,1.77-6.47Q86,115,88.52,115a8.5,8.5,0,0,1,3.34.73Z"/><path class="6b65d5b4-8539-4641-8610-52e8be4af8a9" d="M122.94,127.1a.71.71,0,0,1-.79-.61c0-.38.14-.93.29-1.66l1.35-6.82a10.15,10.15,0,0,0,.22-1.92c0-.1,0-.18,0-.27s0-.31,0-.45c0-1.75-.82-2.63-2.47-2.63q-1.76,0-3.87,2.22a19.78,19.78,0,0,0-3.66,5.71H114l.53-2.68a9.53,9.53,0,0,0,.24-1.94c0-.12,0-.23,0-.34s0-.26,0-.38a2.72,2.72,0,0,0-.64-1.85,2,2,0,0,0-1.57-.74q-1.79,0-3.9,2.15a22,22,0,0,0-3.91,5.78h0l.54-2.73a14.78,14.78,0,0,0,.32-2.37,3,3,0,0,0,0-.31c0-.15,0-.29,0-.4,0-1.41-.67-2.12-2-2.12q-2.44,0-5.49,3.3l-.26,1.28c.07-.06.12-.12.18-.18l-.18.9q2.81-3.08,4.17-3.07a.71.71,0,0,1,.79.59c0,.39-.14.93-.29,1.66l-1.37,6.9-1,4.3h.17l-.17.73L103,129l1-4.94a37.76,37.76,0,0,1,4-6c1.37-1.63,2.4-2.45,3.1-2.45.48,0,.74.3.81.88,0,.25-.08.55-.15.93l-2.2,11.08h.15l-.15.73,2.74-.17,1-5q4.6-8.4,7-8.39c.49,0,.76.29.84.85,0,.25-.09.56-.17.93l-1.36,6.81a13.84,13.84,0,0,0-.34,2.38c0,.11,0,.21,0,.32s0,.28,0,.39c0,1.41.68,2.11,2,2.11,1.63,0,3.47-1.09,5.5-3.28l.25-1.3-.17.19.17-.9C125.25,126.07,123.86,127.1,122.94,127.1Z"/><path class="6b65d5b4-8539-4641-8610-52e8be4af8a9" d="M160.71,109.31q-2.07-1.74-6.73-1.74h-4q-11.2,0-11.94,8.29l.1,0c0,.25-.07.5-.1.77l2.71-1.32V115a5.11,5.11,0,0,1,1.78-4,6.81,6.81,0,0,1,4.51-1.54l-2.5,12.55a7.66,7.66,0,0,1-1.25,3.33,2.82,2.82,0,0,1-2.3.93l-.31,0a1.52,1.52,0,0,0-.36,0l-.21,0-2,2.07.68,0L138,129l6.87.31,1.3,0q7.77,0,12.18-3.61a12.22,12.22,0,0,0,4.41-10c0-.14,0-.27,0-.41s0-.2,0-.31C162.78,112.37,162.09,110.47,160.71,109.31Zm-3.57,14.28a7.84,7.84,0,0,1-3,2.88,10.33,10.33,0,0,1-4.49.79,23.46,23.46,0,0,1-4.12-.35l-1.62-.27a9.53,9.53,0,0,0,2.47-2.36,12.3,12.3,0,0,0,1.58-4.42l2.14-10.72h1.75q7.49,0,7.67,6.61A14.62,14.62,0,0,1,157.14,123.59Z"/><path class="6b65d5b4-8539-4641-8610-52e8be4af8a9" d="M179.58,112.74c-1.26,0-2.64.74-4.16,2.22a19.76,19.76,0,0,0-3.93,5.72h0L172,118a12.18,12.18,0,0,0,.25-2.27c0-.12,0-.24,0-.36s0-.24,0-.35q0-2.31-2-2.31-2.39,0-5.61,3.48l-.25,1.25a1.9,1.9,0,0,1,.19-.21l-.19.92c1.84-2.1,3.25-3.16,4.23-3.16.49,0,.75.32.82.93a9.67,9.67,0,0,1-.19,1.35l-1.35,6.82-1,4.3H167l-.18.73,3-.17,1-5.09q4.53-8,7.25-8a2.73,2.73,0,0,1,1.4.54l1.86-2.52a3.49,3.49,0,0,0-.39-.19l.39-.53A3.53,3.53,0,0,0,179.58,112.74Z"/><path class="6b65d5b4-8539-4641-8610-52e8be4af8a9" d="M193.29,113.58a2.59,2.59,0,0,0-2-.84c-2.29,0-4.43,1.16-6.45,3.47a11.15,11.15,0,0,0-3,7.41,2.46,2.46,0,0,0,0,.28c0,.15,0,.29,0,.44a5.2,5.2,0,0,0,1.23,3.59,4.11,4.11,0,0,0,3.22,1.39q3.14,0,7.58-3.1l.21-1.08-.16.11.16-.82q-3.72,2.56-6.31,2.57c-1.93,0-2.92-1.3-3-3.86V123a11.12,11.12,0,0,0,6.54-1.92,5.59,5.59,0,0,0,2.74-4.61c0-.11,0-.22,0-.33s0-.25,0-.38A3.1,3.1,0,0,0,193.29,113.58Zm-3.59,6.24a9,9,0,0,1-4.77,1.6,10.41,10.41,0,0,1,1.73-4.32c1.05-1.49,2.13-2.23,3.25-2.23.94,0,1.44.59,1.53,1.77A4.24,4.24,0,0,1,189.7,119.82Z"/><path class="6b65d5b4-8539-4641-8610-52e8be4af8a9" d="M205,112.74a6.3,6.3,0,0,0-4.12,1.48,4.3,4.3,0,0,0-1.8,3.37c0,.1,0,.2,0,.31s0,.27,0,.41c0,.91.62,2,1.86,3.41l1.27,1.4a6,6,0,0,1,1.53,2.37,1.88,1.88,0,0,1-.75,1.12,3.09,3.09,0,0,1-2,.61,6.18,6.18,0,0,1-3.7-1.33l-1.84,1.89.52.18-.52.54a10.93,10.93,0,0,0,3.91.82,7.41,7.41,0,0,0,4.52-1.47,4.15,4.15,0,0,0,2-3.34,1.82,1.82,0,0,0,0-.32,2.56,2.56,0,0,0,0-.39c0-.91-.62-2.06-1.87-3.47l-1.15-1.27a6.14,6.14,0,0,1-1.59-2.62c.16-1.18,1-1.78,2.69-1.78,1.44,0,2.23.5,2.39,1.5l0,.2h.06c0,.07,0,.12,0,.19a2.33,2.33,0,0,1,0,.29l-.05.24h.9l.61-3.09-.13,0,.13-.68A9.13,9.13,0,0,0,205,112.74Z"/><path class="6b65d5b4-8539-4641-8610-52e8be4af8a9" d="M217.89,112.74a6.31,6.31,0,0,0-4.13,1.48,4.3,4.3,0,0,0-1.8,3.37c0,.1,0,.2,0,.31s0,.27,0,.41c0,.91.62,2,1.86,3.41l1.27,1.4a5.89,5.89,0,0,1,1.54,2.37,1.9,1.9,0,0,1-.76,1.12,3.09,3.09,0,0,1-2,.61,6.17,6.17,0,0,1-3.69-1.33l-1.85,1.89.53.18-.53.54a11,11,0,0,0,3.92.82,7.38,7.38,0,0,0,4.51-1.47,4.15,4.15,0,0,0,2-3.34c0-.1,0-.21,0-.32s0-.26,0-.39c0-.91-.62-2.06-1.87-3.47l-1.14-1.27a6,6,0,0,1-1.59-2.62c.16-1.18,1.05-1.78,2.68-1.78,1.44,0,2.23.5,2.39,1.5l0,.2h.05a1.16,1.16,0,0,1,0,.48l0,.24h.89l.62-3.09-.14,0,.14-.68A9.23,9.23,0,0,0,217.89,112.74Z"/><path class="6b65d5b4-8539-4641-8610-52e8be4af8a9" d="M275,114.14a4.12,4.12,0,0,0-3.2-1.4q-3.58,0-6.64,3.42a11,11,0,0,0-3,7.44,2.46,2.46,0,0,0,0,.28c0,.15,0,.29,0,.44a5.3,5.3,0,0,0,1.22,3.57,3.87,3.87,0,0,0,3.05,1.43,9.05,9.05,0,0,0,6.82-3.36,10.9,10.9,0,0,0,3.05-7.54c0-.09,0-.18,0-.27s0-.3,0-.45A5.11,5.11,0,0,0,275,114.14Zm-3.37,10.59q-1.58,2.65-3.64,2.66c-1.81,0-2.74-1.42-2.8-4.24a12,12,0,0,1,1.59-5.77c1.07-1.83,2.26-2.75,3.6-2.75,1.81,0,2.75,1.46,2.81,4.34A11.83,11.83,0,0,1,271.63,124.73Z"/><path class="6b65d5b4-8539-4641-8610-52e8be4af8a9" d="M284.2,127.1a.72.72,0,0,1-.79-.62c0-.38.14-.91.29-1.65l1.36-6.9,1.07-4.47-.19.06.19-.78L279.29,115l-.16.85.14,0-.14.76a9.56,9.56,0,0,1,2.25-.48c.53,0,.81.32.88.92s-.18,1.28-.37,2.29l-1,4.87a13.29,13.29,0,0,0-.32,2.35,2.83,2.83,0,0,0,0,.3,3.1,3.1,0,0,0,0,.41c0,1.41.67,2.11,2,2.11q2.43,0,5.49-3.28l.25-1.3-.17.18.17-.9Q285.58,127.1,284.2,127.1Z"/><path class="6b65d5b4-8539-4641-8610-52e8be4af8a9" d="M306.35,112.74l-3,.34a3.63,3.63,0,0,1,.47.66l-.47.06a3.4,3.4,0,0,1,.89,1.94c-.18,1.88-1.85,4.74-5.06,8.62l-1.14,1.38V125q0-12.23-4.86-12.23c-1.45,0-3,1.12-4.72,3.36l-.4,2.06.21-.33-.21,1c1.29-2.24,2.52-3.35,3.69-3.35s2.05,1.06,2.72,3.19a28.77,28.77,0,0,1,1,8.16l-.06,1.73h0l0,.72,1.5-.35,5-5.83a58.75,58.75,0,0,0,4.16-5.18,5,5,0,0,0,.95-2.64,2.19,2.19,0,0,0,0-.36c0-.12,0-.24,0-.36A3.38,3.38,0,0,0,306.35,112.74Z"/><path class="6b65d5b4-8539-4641-8610-52e8be4af8a9" d="M339.37,113.27a9.13,9.13,0,0,0-2.85-.53,6.3,6.3,0,0,0-4.12,1.48,4.3,4.3,0,0,0-1.8,3.37c0,.1,0,.2,0,.31s0,.27,0,.41c0,.91.62,2,1.85,3.41l1.28,1.4a6,6,0,0,1,1.53,2.37,1.88,1.88,0,0,1-.75,1.12,3.09,3.09,0,0,1-1.95.61,6.18,6.18,0,0,1-3.7-1.33L327,127.78l.52.18-.52.54a10.93,10.93,0,0,0,3.91.82,7.41,7.41,0,0,0,4.52-1.47,4.15,4.15,0,0,0,2-3.34,1.82,1.82,0,0,0,0-.32,2.56,2.56,0,0,0,0-.39c0-.91-.62-2.06-1.87-3.47l-1.15-1.27a6.14,6.14,0,0,1-1.59-2.62c.16-1.18,1.05-1.78,2.69-1.78,1.44,0,2.23.5,2.39,1.5l0,.2h.06c0,.07,0,.12,0,.19a2.33,2.33,0,0,1,0,.29l-.05.24h.9l.61-3.09-.13,0Z"/><path class="6b65d5b4-8539-4641-8610-52e8be4af8a9" d="M265.19,110l1-1.89-.32-.11.32-.61a5.51,5.51,0,0,0-2-.39,6.41,6.41,0,0,0-5,2.29,13.31,13.31,0,0,0-2.88,6.46l-1.61,8.08A53.69,53.69,0,0,0,252,118.6l-1.78-3.16a63.77,63.77,0,0,1-3.78-7.87H245.1a10.63,10.63,0,0,0-7,2.27,8.23,8.23,0,0,0-3,6l.09,0c0,.25-.07.5-.09.76l2.71-1.33a5.75,5.75,0,0,1,1.54-4.09,5,5,0,0,1,3.83-1.64,6.53,6.53,0,0,1,.86.09l-2.5,12.57a7.55,7.55,0,0,1-1.73,3.71,3.88,3.88,0,0,1-2.94,1.39A4.39,4.39,0,0,1,233,124.9l-2,2c.14.11.27.21.41.3l-.41.42a6.8,6.8,0,0,0,4.36,1.58,7.44,7.44,0,0,0,5.81-2.74,16.81,16.81,0,0,0,3.4-7.84l1.06-5.38q.9,1.91,2.27,4.34l3.42,6.07a40.73,40.73,0,0,1,2.94,5.9L256,129l.65-4.14,2.1-10.52q1-5.25,4.05-5.25A3.87,3.87,0,0,1,265.19,110Z"/><polygon class="6b65d5b4-8539-4641-8610-52e8be4af8a9" points="286.91 109.13 288.11 106.56 287.63 106.87 288.11 105.84 284.17 108.41 283.23 110.31 283.71 110.07 283.23 111.03 286.91 109.13"/><path class="6b65d5b4-8539-4641-8610-52e8be4af8a9" d="M327.42,124.74l-.17.19.17-.91q-2.76,3.08-4.16,3.08a.71.71,0,0,1-.79-.61c0-.38.14-.92.29-1.66l1.35-6.9,1-4.14H325l.17-.7c-1.46-.11-2.85-.17-4.18-.17a10.3,10.3,0,0,0-8.19,4,12.4,12.4,0,0,0-3.24,8c0,.12,0,.23,0,.34s0,.25,0,.37q0,3.69,2.94,3.69c1.3,0,2.68-.74,4.16-2.21a19,19,0,0,0,3.8-5.73h.11l-.54,2.74a13.59,13.59,0,0,0-.34,2.38,3,3,0,0,0,0,.31c0,.15,0,.29,0,.4,0,1.41.68,2.11,2,2.11,1.62,0,3.46-1.09,5.5-3.28Zm-6.26-6.49a28.74,28.74,0,0,1-4,5.76c-1.51,1.69-2.66,2.53-3.46,2.53s-1.2-.62-1.27-1.85a16.89,16.89,0,0,1,1.77-6.47c1-2.14,2.37-3.21,4.07-3.21a8.55,8.55,0,0,1,3.35.73Z"/></g><g id="e157ead2-e3eb-483d-9b62-8696227ac732" data-name="logo"><g id="f61baba7-1d9c-4562-bad1-cd1320c48552" data-name="&lt;Group&gt;"><path id="d0eb88a9-bd72-4c4f-aea3-8abc5377b71c" data-name="&lt;Path&gt;" class="9e6d7eb9-4d74-445c-a587-dbc1f2c065f0" d="M70.14,52.28a1.15,1.15,0,0,0,.92.27c.45,0,1.09-.15,2-.27a11.46,11.46,0,0,1,3.47,0,12.57,12.57,0,0,1,5.2,2.19,12,12,0,0,1,2.67,2.61A8.55,8.55,0,0,1,86,60.76a11.59,11.59,0,0,1-.29,5,15.92,15.92,0,0,1-2.85,5.56,19.78,19.78,0,0,1-5.59,4.92,22.49,22.49,0,0,1-8.16,2.68,20.28,20.28,0,0,1-2.37.2c-.81,0-1.64,0-2.47,0a27.29,27.29,0,0,1-5.1-.89,26,26,0,0,1-5.1-2,26.44,26.44,0,0,1-2.41-1.48c-.38-.28-.8-.52-1.16-.83L49.38,73A21.31,21.31,0,0,1,43.15,63a25.68,25.68,0,0,1-.39-12.73A26.21,26.21,0,0,1,45,44.13a23.42,23.42,0,0,1,3.88-5.24,24.06,24.06,0,0,1,2.56-2.17l.68-.51a5.77,5.77,0,0,1,.7-.48l1.47-.86a27.43,27.43,0,0,1,6.47-2.55,39.06,39.06,0,0,1,14.42-.85,50.79,50.79,0,0,1,14.17,3.85,85.73,85.73,0,0,1,12.9,7.25c4.06,2.75,7.93,5.7,11.66,8.63,7.45,5.87,14.46,11.62,21.4,16a76.68,76.68,0,0,0,19.4,9.1l1.07.32,1.06.26,2,.48,1.94.34.92.16.9.1c1.18.13,2.27.27,3.29.28s1.92.09,2.75,0,1.55,0,2.18-.08l1.59-.18,1.29-.14-1.3,0-1.59,0-2.16-.1c-.82,0-1.72-.15-2.71-.27s-2-.31-3.19-.53l-.87-.17-.89-.23-1.86-.49-1.94-.62-1-.33-1-.39a75.8,75.8,0,0,1-18.1-10.24c-6.4-4.69-12.84-10.77-20-17.19-3.57-3.2-7.34-6.48-11.42-9.62A90,90,0,0,0,92.3,29.13a57.56,57.56,0,0,0-16-5.28,46.31,46.31,0,0,0-17.47.25,35.79,35.79,0,0,0-8.58,3l-2,1.09a10,10,0,0,0-1,.61l-1,.65a33.35,33.35,0,0,0-3.64,2.88,32.27,32.27,0,0,0-5.8,7.29,34.61,34.61,0,0,0-3.18,26.16,30.57,30.57,0,0,0,3.52,8.07l1.2,1.84c.46.57.91,1.14,1.37,1.7A17,17,0,0,0,41.17,79c.51.49,1,1,1.53,1.48l1.62,1.35c.53.45,1.12.81,1.67,1.21a33.25,33.25,0,0,0,3.45,2.08,35.64,35.64,0,0,0,7.13,2.73A36.54,36.54,0,0,0,63.67,89c1.17,0,2.32.06,3.46,0a30.46,30.46,0,0,0,3.34-.35,31.14,31.14,0,0,0,11.75-4.31,28,28,0,0,0,8-7.68,23.55,23.55,0,0,0,3.84-9,11,11,0,0,0,.18-1.15l.12-1.13c0-.76,0-1.51,0-2.24s-.11-1.45-.23-2.15-.25-1.35-.45-2a15.42,15.42,0,0,0-3.88-6.57,17.08,17.08,0,0,0-4.9-3.48,15,15,0,0,0-8.5-1.44,9.74,9.74,0,0,0-4.8,2,4.64,4.64,0,0,0-1.52,2A.92.92,0,0,0,70.14,52.28Z"/></g><g id="1143f491-e2e7-4f55-8697-ff565b3d9144" data-name="&lt;Group&gt;"><path id="d2235212-ab01-4f77-aaa3-860150c67751" data-name="&lt;Path&gt;" class="9e6d7eb9-4d74-445c-a587-dbc1f2c065f0" d="M35.23,19.15c.26.43.86.75,2.11.71.63,0,1.39-.18,2.43-.29.52-.07,1.08-.17,1.7-.3s1.34-.17,2.1-.3a55.48,55.48,0,0,1,5.58-.49,49.35,49.35,0,0,1,7.76.43A55,55,0,0,1,67,21.33a59.16,59.16,0,0,1,12.21,5.73,116.53,116.53,0,0,1,13.39,9.65c4.52,3.69,9.08,7.76,13.77,11.83,2.35,2,4.73,4.07,7.16,6s4.83,3.86,7.3,5.69a105.87,105.87,0,0,0,15,9.54,77,77,0,0,0,14.58,5.76c2.31.57,4.47,1.14,6.53,1.44,1,.16,2,.38,3,.46l2.72.28,1.27.13,1.2.05,2.19.07c1.36.07,2.53,0,3.48,0l2.92-.12-2.9-.32c-.94-.1-2.09-.19-3.42-.45l-2.12-.37-1.16-.21-1.21-.29-2.6-.63c-.91-.21-1.82-.55-2.78-.83-1.93-.54-3.93-1.37-6.05-2.18a78.39,78.39,0,0,1-13.07-7.08A110.7,110.7,0,0,1,125.22,55c-2.17-2-4.38-4.06-6.55-6.16s-4.31-4.26-6.48-6.45c-4.32-4.37-8.7-8.82-13.3-12.95A97.78,97.78,0,0,0,84.46,18.5,59.63,59.63,0,0,0,70,12,51.31,51.31,0,0,0,57.66,9.92a39.94,39.94,0,0,0-9.49.72,30.16,30.16,0,0,0-6.51,2.11c-.85.41-1.6.79-2.26,1.17s-1.19.81-1.66,1.16a9,9,0,0,0-2,1.93C35,18.1,35,18.73,35.23,19.15Z"/></g><g id="bba97009-b0d9-4968-9330-9ddcc1271857" data-name="&lt;Group&gt;"><path id="4cc9133b-79d8-45c2-b0be-436786452665" data-name="&lt;Path&gt;" class="9e6d7eb9-4d74-445c-a587-dbc1f2c065f0" d="M129.8,25.07a1.26,1.26,0,0,0-1.05-.66,5,5,0,0,0-3,.74,13.54,13.54,0,0,0-4.85,4.62,20,20,0,0,0-3,11.31,22.55,22.55,0,0,0,1.61,7.53,27.86,27.86,0,0,0,3.94,6.81,34.12,34.12,0,0,0,5.35,5.45,45,45,0,0,0,5.78,4,78.72,78.72,0,0,0,9.75,4.7c2.48,1,4,1.59,4,1.59l-3.47-2.5c-2.16-1.57-5.2-3.75-8.31-6.5a40.89,40.89,0,0,1-8.43-9.91,27.43,27.43,0,0,1-2.57-5.77,21.9,21.9,0,0,1-1-5.58,19.5,19.5,0,0,1,1.63-8.18,27.82,27.82,0,0,1,2.38-4.23,11.15,11.15,0,0,0,1.24-2.17A1.54,1.54,0,0,0,129.8,25.07Z"/></g><g id="a6612507-46ee-4a9f-8da3-46029b17c2d7" data-name="&lt;Group&gt;"><path id="ab1fd0bf-0a28-4637-b50c-43a34ba42125" data-name="&lt;Path&gt;" class="9e6d7eb9-4d74-445c-a587-dbc1f2c065f0" d="M138.8,12.33c.31-.13.58-.44.59-1.28a5,5,0,0,0,0-.73c-.06-.27-.15-.58-.26-.93l-.2-.56c-.08-.19-.19-.38-.3-.59a8.75,8.75,0,0,0-.82-1.33,10.58,10.58,0,0,0-1.24-1.48,14.23,14.23,0,0,0-1.74-1.52,17.57,17.57,0,0,0-5.28-2.62,19,19,0,0,0-7.89-.63c-.37,0-.76.13-1.15.2s-.78.16-1.18.28l-1.2.37L116.91,2a20.7,20.7,0,0,0-4.61,2.76A23.74,23.74,0,0,0,105.36,14a26.46,26.46,0,0,0-1.71,5.77,27,27,0,0,0-.33,6A32.67,32.67,0,0,0,106.06,37,41.44,41.44,0,0,0,111.52,46,69.63,69.63,0,0,0,123.18,57.4c1.58,1.25,2.87,2.21,3.76,2.87l1.38,1-1.19-1.22c-.77-.8-1.88-2-3.24-3.43a75.36,75.36,0,0,1-9.62-12.49,40.88,40.88,0,0,1-3.93-8.78A29.57,29.57,0,0,1,109,25.65a21.82,21.82,0,0,1,2.21-9A19.62,19.62,0,0,1,116.45,10a15.13,15.13,0,0,1,3.14-1.93l.78-.34.75-.25a4.88,4.88,0,0,1,.75-.2l.74-.18a15.48,15.48,0,0,1,5.41,0,17.11,17.11,0,0,1,4,1.27c.53.27,1,.5,1.46.77s.82.52,1.18.75.64.49.93.69l.42.3.34.29a7.32,7.32,0,0,0,.63.47,5.45,5.45,0,0,0,.49.36A1.45,1.45,0,0,0,138.8,12.33Z"/></g><g id="1bab98ec-c069-4289-b434-a5eb59f18c34" data-name="&lt;Group&gt;"><path id="88da1ec5-728f-4ccc-8f0e-bc1876eca6a8" data-name="&lt;Path&gt;" class="9e6d7eb9-4d74-445c-a587-dbc1f2c065f0" d="M112.76,80.64c.39.55,1.21,1,3.16.54s5.1-1.79,10.88-3.49a71.9,71.9,0,0,1,9.65-2,53.3,53.3,0,0,1,10.1-.36,50.6,50.6,0,0,1,7.93,1.18c1,.24,1.77.49,2.32.63l.85.23-.73-.49c-.47-.31-1.15-.8-2-1.33a40,40,0,0,0-7.66-3.5,41.44,41.44,0,0,0-11-2A37.2,37.2,0,0,0,125,71.25l-2.37.76c-.74.23-1.41.56-2,.82a23.71,23.71,0,0,0-3.25,1.68,16.47,16.47,0,0,0-2.26,1.6,10.17,10.17,0,0,0-1.44,1.37C112.21,79.21,112.39,80.1,112.76,80.64Z"/></g><g id="d954c2ca-b29f-415c-9162-0067a5535385" data-name="&lt;Group&gt;"><path id="9e9dc353-6bf6-48b7-8943-aec3819f878e" data-name="&lt;Path&gt;" class="9e6d7eb9-4d74-445c-a587-dbc1f2c065f0" d="M59.64,69.79l-.31-.38c-.2-.25-.52-.57-.86-1a21.62,21.62,0,0,1-4-17.56,21.42,21.42,0,0,1,7.36-11.43,20.26,20.26,0,0,1,4-2.55c.52-.28,1-.42,1.24-.57l.44-.19L67,36a11,11,0,0,0-1.39-.18,15.3,15.3,0,0,0-5.28.59,17.46,17.46,0,0,0-3.5,1.43,18.26,18.26,0,0,0-3.59,2.57,17.21,17.21,0,0,0-4.5,19.22,18.92,18.92,0,0,0,2.09,3.9,17.67,17.67,0,0,0,2.5,2.83,15,15,0,0,0,4.47,2.86,9.29,9.29,0,0,0,1.33.46Z"/></g><g id="41dd5dec-8189-4249-b69d-bf970d3d725b" data-name="&lt;Group&gt;"><path id="a9a015c4-fb73-4f90-9c67-720f130df465" data-name="&lt;Path&gt;" class="9e6d7eb9-4d74-445c-a587-dbc1f2c065f0" d="M77.26,68.3l-.33-.09c-.22-.06-.53-.12-.91-.25a17.13,17.13,0,0,1-3-1.19,18.92,18.92,0,0,1-10-13.55,18.36,18.36,0,0,1-.26-3.17c0-.41,0-.72,0-.94l0-.34-.27.2a8.27,8.27,0,0,0-.73.66,10.24,10.24,0,0,0-2.08,3,12.1,12.1,0,0,0-1.07,5.59A12.26,12.26,0,0,0,67,69.44a12.23,12.23,0,0,0,5.65.64A10.24,10.24,0,0,0,76.13,69a7.46,7.46,0,0,0,.85-.51Z"/></g><g id="aa744b94-4da3-4ba7-9059-07455292067a" data-name="&lt;Group&gt;"><path id="94a5ebbe-0d57-4ea3-ba57-24b047b22b99" data-name="&lt;Path&gt;" class="9e6d7eb9-4d74-445c-a587-dbc1f2c065f0" d="M100.24,49.13s.27.62.81,1.73l.46.92c.17.33.39.67.61,1a26.09,26.09,0,0,0,1.63,2.49l1,1.4c.37.48.8.94,1.22,1.43a37,37,0,0,0,2.93,3,37.66,37.66,0,0,0,7.88,5.41,37.77,37.77,0,0,0,9,3.12,34.61,34.61,0,0,0,4.12.59c.66.05,1.28.12,1.88.13h1.74a26,26,0,0,0,3-.17c.44,0,.84-.08,1.21-.13l1-.18c1.22-.22,1.87-.38,1.87-.38s-.64-.26-1.78-.66l-.94-.32-1.11-.43c-.79-.31-1.68-.6-2.65-1l-1.51-.59c-.52-.21-1.05-.46-1.61-.69-1.12-.44-2.27-1-3.49-1.52-2.42-1.12-5-2.37-7.73-3.72s-5.25-2.73-7.59-4c-1.14-.67-2.28-1.27-3.3-1.9-.51-.31-1-.59-1.51-.89L106,52.9c-.9-.53-1.67-1.08-2.39-1.53l-1-.63-.82-.57C100.83,49.49,100.24,49.13,100.24,49.13Z"/></g><g id="1933373f-f1c4-4b8c-aaa6-67f0c3b25c44" data-name="&lt;Group&gt;"><path id="05f0aab7-195e-4e04-a22b-1162792c4d60" data-name="&lt;Path&gt;" class="9e6d7eb9-4d74-445c-a587-dbc1f2c065f0" d="M136.35,38.8s.62.68,1.74,1.78l4.6,4.47L145.75,48c1.1,1,2.23,2.12,3.44,3.2,2.4,2.24,5,4.56,7.85,6.86s5.62,4.41,8.3,6.31c1.3,1,2.63,1.85,3.83,2.72l3.48,2.41L178,73.09c1.29.88,2.09,1.34,2.09,1.34s-.07-.89-.33-2.47l-.24-1.31c-.1-.48-.23-1-.37-1.53A34.05,34.05,0,0,0,178,65.46c-.24-.66-.51-1.35-.8-2.07s-.65-1.43-1-2.18a40.49,40.49,0,0,0-2.63-4.59,39.52,39.52,0,0,0-18.44-15,42.63,42.63,0,0,0-5-1.65c-.8-.2-1.57-.41-2.33-.55s-1.5-.26-2.19-.37a33.86,33.86,0,0,0-3.81-.36l-1.57-.06-1.34,0C137.24,38.69,136.35,38.8,136.35,38.8Z"/></g><g id="90629b58-8d1e-4083-8a04-044cbd8841e6" data-name="&lt;Group&gt;"><path id="d9d53509-bf76-4348-92bc-a308b1e719d0" data-name="&lt;Path&gt;" class="9e6d7eb9-4d74-445c-a587-dbc1f2c065f0" d="M153.45,17.2a57.59,57.59,0,0,0,8.78,21.67,57.55,57.55,0,0,0,17.05,16A57.65,57.65,0,0,0,170.5,33.2,57.55,57.55,0,0,0,153.45,17.2Z"/></g><g id="855141bb-d392-4f0a-9d02-f5906a8e9e4d" data-name="&lt;Group&gt;"><path id="ed663064-ccd5-451f-9a30-a0b1dd69e44a" data-name="&lt;Path&gt;" class="9e6d7eb9-4d74-445c-a587-dbc1f2c065f0" d="M158,37.12h.22a1.68,1.68,0,0,1,1.67,1.68,1.7,1.7,0,0,1-1.67,1.67H158a1.68,1.68,0,1,1,0-3.35Z"/></g><g id="3eb91fe0-c9af-4f1b-b259-a71257f67ea7" data-name="&lt;Group&gt;"><path id="d2cae3fe-ff9c-4510-bba9-cd08a9004ac7" data-name="&lt;Path&gt;" class="9e6d7eb9-4d74-445c-a587-dbc1f2c065f0" d="M153.3,37.79a1.67,1.67,0,0,1,0-3.34,1.67,1.67,0,0,1,0,3.34Z"/></g><g id="49d5be97-847a-42b1-8d99-f7cb5cdcd556" data-name="&lt;Group&gt;"><path id="6e335f66-8791-4240-868d-b2f8c405be3e" data-name="&lt;Path&gt;" class="9e6d7eb9-4d74-445c-a587-dbc1f2c065f0" d="M147.28,36.23a1.68,1.68,0,0,1,0-3.35,1.68,1.68,0,0,1,0,3.35Z"/></g><g id="384b1c8e-8180-4dce-9872-7556dc8fd9d8" data-name="&lt;Group&gt;"><path id="fd620f34-4fa5-4a45-be3d-1b8516708d04" data-name="&lt;Path&gt;" class="9e6d7eb9-4d74-445c-a587-dbc1f2c065f0" d="M141.47,36.68a1.68,1.68,0,0,1,0-3.35,1.68,1.68,0,0,1,0,3.35Z"/></g><g id="4abf70f3-d946-44e7-98ae-17fdc4f4d35e" data-name="&lt;Group&gt;"><path id="6ee7223c-0824-4cfc-b2a6-272ed046c144" data-name="&lt;Path&gt;" class="9e6d7eb9-4d74-445c-a587-dbc1f2c065f0" d="M130.76,12.8h-.22a1.68,1.68,0,0,1-1.67-1.68,1.7,1.7,0,0,1,1.67-1.67h.22a1.68,1.68,0,1,1,0,3.35Z"/></g><g id="427a2948-da59-470f-83d3-50b974d4f226" data-name="&lt;Group&gt;"><path id="91b560fb-64a1-485d-b401-2cc52a56381d" data-name="&lt;Path&gt;" class="9e6d7eb9-4d74-445c-a587-dbc1f2c065f0" d="M125.63,11.91a1.68,1.68,0,0,1,0-3.35,1.68,1.68,0,0,1,0,3.35Z"/></g><g id="06453838-517b-4b0b-89bd-78f75c3251e2" data-name="&lt;Group&gt;"><path id="a3b75731-d86a-4160-adba-c22faaf2355a" data-name="&lt;Path&gt;" class="9e6d7eb9-4d74-445c-a587-dbc1f2c065f0" d="M120.27,13.47a1.68,1.68,0,0,1,0-3.35,1.68,1.68,0,0,1,0,3.35Z"/></g><g id="cb3df4c3-4412-4e6f-8e7e-77a0f91cbeb9" data-name="&lt;Group&gt;"><path id="65263af8-8888-49de-a3ff-8501628d3aa2" data-name="&lt;Path&gt;" class="9e6d7eb9-4d74-445c-a587-dbc1f2c065f0" d="M116.26,19.05a1.68,1.68,0,0,1,0-3.35,1.68,1.68,0,0,1,0,3.35Z"/></g><g id="65f2fe51-52ff-48d8-81ac-23e4138b98db" data-name="&lt;Group&gt;"><path id="4fb2ee24-46f9-43b2-9f83-131ea9d8d074" data-name="&lt;Path&gt;" class="9e6d7eb9-4d74-445c-a587-dbc1f2c065f0" d="M44.3,15.32l.5-.24c.33-.15.77-.44,1.41-.7a27.29,27.29,0,0,1,5.5-1.8,33.22,33.22,0,0,1,8.68-.69,41.71,41.71,0,0,1,10.64,2,68.12,68.12,0,0,1,18.25,9.78c2.23,1.61,4,3,5.23,4l1.91,1.53s-.58-.65-1.67-1.79S92.06,24.63,90,22.77a62.6,62.6,0,0,0-7.71-5.93,46.19,46.19,0,0,0-10.53-5.11A35.33,35.33,0,0,0,60.42,10a29.33,29.33,0,0,0-9,1.5A23.86,23.86,0,0,0,46,14.07c-.6.36-1,.72-1.3.92Z"/><path id="525b552a-6c59-4c02-a997-42108989f587" data-name="&lt;Path&gt;" class="9e6d7eb9-4d74-445c-a587-dbc1f2c065f0" d="M45.06,9.33l.55-.19c.36-.12.88-.32,1.57-.55a38.2,38.2,0,0,1,5.92-1.3,44.73,44.73,0,0,1,19.44,2,73.12,73.12,0,0,1,17.58,8.9c2.12,1.42,3.79,2.65,4.95,3.49L96.86,23,95.3,21.4c-1-1-2.52-2.45-4.5-4.12a60.31,60.31,0,0,0-7.37-5.36A48.32,48.32,0,0,0,73.24,7.13,39.22,39.22,0,0,0,62.07,5.22a34.88,34.88,0,0,0-9.18,1,30.85,30.85,0,0,0-5.84,2.09c-.66.32-1.15.6-1.49.78Z"/><path id="659c5a39-eaaa-432e-b55a-bc1641ff4e41" data-name="&lt;Path&gt;" class="9e6d7eb9-4d74-445c-a587-dbc1f2c065f0" d="M51,2.8l.49-.07c.31-.06.78-.12,1.38-.18s1.33-.16,2.18-.19l1.36-.08,1.52,0a48.62,48.62,0,0,1,7.38.54A54.75,54.75,0,0,1,74,4.86a74.25,74.25,0,0,1,14.46,6.68c1.74,1,3.11,1.91,4.06,2.52l1.08.71L94,15l-.34-.3-1-.84c-.87-.73-2.13-1.78-3.79-3a52.8,52.8,0,0,0-14.4-7.48,42.84,42.84,0,0,0-9-1.9,40.7,40.7,0,0,0-7.57,0l-1.54.15L55,1.88c-.85.12-1.58.31-2.17.44s-1,.24-1.36.34Z"/></g><g id="bdae67b8-16ad-4a0a-96dd-5227f22b0c65" data-name="&lt;Group&gt;"><path id="0d8321b7-3c79-43e2-b6bf-b4a55b3539dd" data-name="&lt;Path&gt;" class="9e6d7eb9-4d74-445c-a587-dbc1f2c065f0" d="M142.29,57.91a43.39,43.39,0,0,0,13,10.3,43.3,43.3,0,0,0,16,4.33,41.23,41.23,0,0,0-29.06-14.63Z"/></g><g id="f5dd123c-ab85-4134-82cd-d6c39092dd12" data-name="&lt;Group&gt;"><path id="4e231276-40f5-41ad-a2c7-bc106c204d59" data-name="&lt;Path&gt;" class="9e6d7eb9-4d74-445c-a587-dbc1f2c065f0" d="M7.63,33A2.44,2.44,0,0,0,5.9,33a5.15,5.15,0,0,0-2.31,2,16.25,16.25,0,0,0-2.36,5.67A30.19,30.19,0,0,0,.77,51.41,34.2,34.2,0,0,0,5.82,65.19a37.07,37.07,0,0,0,9.92,10.33,36,36,0,0,0,9.51,4.76,29.83,29.83,0,0,0,3,.81l1.07.23-.9-.62c-.58-.39-1.4-1-2.38-1.79A41.46,41.46,0,0,1,13.35,61.33a50,50,0,0,1-2.64-11.19,82.07,82.07,0,0,1-.53-8.44,44.82,44.82,0,0,0-.3-5.05A6.29,6.29,0,0,0,9,34,2.75,2.75,0,0,0,7.63,33Z"/></g><g id="2b13b17e-c1b4-4c42-961e-d5f399ac342d" data-name="&lt;Group&gt;"><path id="db68823f-a77a-4b30-b9a4-5d40a49081c3" data-name="&lt;Path&gt;" class="9e6d7eb9-4d74-445c-a587-dbc1f2c065f0" d="M290,52.28a1.15,1.15,0,0,1-.92.27c-.45,0-1.08-.15-2-.27a11.45,11.45,0,0,0-3.47,0,12.57,12.57,0,0,0-5.2,2.19,12,12,0,0,0-2.67,2.61,8.42,8.42,0,0,0-1.62,3.66,11.43,11.43,0,0,0,.28,5,15.92,15.92,0,0,0,2.85,5.56,19.78,19.78,0,0,0,5.59,4.92,22.49,22.49,0,0,0,8.16,2.68,20.47,20.47,0,0,0,2.37.2c.81,0,1.64,0,2.47,0a27.29,27.29,0,0,0,5.1-.89,26,26,0,0,0,5.1-2,25.14,25.14,0,0,0,2.41-1.48c.38-.28.8-.52,1.16-.83l1.11-.93A21.31,21.31,0,0,0,317,63a25.68,25.68,0,0,0,.39-12.73,26.21,26.21,0,0,0-2.24-6.17,23.42,23.42,0,0,0-3.88-5.24,23.11,23.11,0,0,0-2.56-2.17l-.68-.51a5.77,5.77,0,0,0-.7-.48l-1.47-.86a27.26,27.26,0,0,0-6.47-2.55A39.06,39.06,0,0,0,285,31.47a50.88,50.88,0,0,0-14.17,3.85,86.22,86.22,0,0,0-12.9,7.25c-4.06,2.75-7.93,5.7-11.66,8.63-7.45,5.87-14.46,11.62-21.4,16a76.68,76.68,0,0,1-19.4,9.1l-1.07.32-1.06.26-2,.48-1.94.34-.92.16-.9.1c-1.18.13-2.27.27-3.28.28s-1.93.09-2.76,0-1.55,0-2.18-.08L187.71,78l-1.29-.14,1.3,0,1.59,0,2.16-.1c.82,0,1.72-.15,2.71-.27s2-.31,3.19-.53l.87-.17.89-.23,1.86-.49,1.94-.62,1-.33,1-.39a75.8,75.8,0,0,0,18.1-10.24c6.4-4.69,12.84-10.77,20-17.19,3.57-3.2,7.33-6.48,11.41-9.62a90.64,90.64,0,0,1,13.43-8.61,57.45,57.45,0,0,1,16-5.28,46.26,46.26,0,0,1,17.46.25,35.86,35.86,0,0,1,8.59,3l2,1.09a10,10,0,0,1,1,.61l1,.65a33.35,33.35,0,0,1,3.64,2.88,32,32,0,0,1,5.8,7.29,34.61,34.61,0,0,1,3.18,26.16A30.24,30.24,0,0,1,323,73.82l-1.2,1.84c-.46.57-.91,1.14-1.37,1.7A17,17,0,0,1,319,79c-.51.49-1,1-1.53,1.48l-1.62,1.35c-.53.45-1.12.81-1.67,1.21a34.2,34.2,0,0,1-3.44,2.08,36,36,0,0,1-7.14,2.73,36.42,36.42,0,0,1-7.1,1.14c-1.17,0-2.32.06-3.45,0a30.38,30.38,0,0,1-3.35-.35,31.14,31.14,0,0,1-11.75-4.31A28.09,28.09,0,0,1,270,76.6a23.53,23.53,0,0,1-3.83-9,7.44,7.44,0,0,1-.18-1.15l-.13-1.13c0-.76,0-1.51,0-2.24s.11-1.45.23-2.15.26-1.35.45-2a15.42,15.42,0,0,1,3.88-6.57,17.08,17.08,0,0,1,4.9-3.48,15,15,0,0,1,8.51-1.44,9.7,9.7,0,0,1,4.79,2,4.64,4.64,0,0,1,1.52,2A.92.92,0,0,1,290,52.28Z"/></g><g id="fa7654c4-d795-44af-b8c4-72ca5faad5dd" data-name="&lt;Group&gt;"><path id="1852e16f-16f0-437f-aa54-640912351a77" data-name="&lt;Path&gt;" class="9e6d7eb9-4d74-445c-a587-dbc1f2c065f0" d="M324.93,19.15c-.26.43-.85.75-2.11.71-.63,0-1.39-.18-2.43-.29-.51-.07-1.08-.17-1.7-.3s-1.34-.17-2.1-.3a55.52,55.52,0,0,0-5.57-.49,49.29,49.29,0,0,0-7.76.43,55.13,55.13,0,0,0-10.14,2.42,59.4,59.4,0,0,0-12.21,5.73,116.53,116.53,0,0,0-13.39,9.65c-4.52,3.69-9.08,7.76-13.77,11.83-2.34,2-4.73,4.07-7.16,6s-4.83,3.86-7.3,5.69a105.87,105.87,0,0,1-15,9.54,77,77,0,0,1-14.58,5.76c-2.31.57-4.47,1.14-6.53,1.44-1,.16-2,.38-2.95.46l-2.73.28-1.27.13-1.2.05-2.19.07c-1.36.07-2.53,0-3.48,0l-2.92-.12,2.91-.32c.93-.1,2.08-.19,3.41-.45l2.12-.37L196,76.5l1.22-.29,2.59-.63c.91-.21,1.82-.55,2.78-.83,1.94-.54,3.93-1.37,6-2.18a78,78,0,0,0,13.07-7.08A110.7,110.7,0,0,0,234.94,55c2.18-2,4.39-4.06,6.55-6.16s4.32-4.26,6.48-6.45c4.33-4.37,8.71-8.82,13.31-12.95A97.18,97.18,0,0,1,275.7,18.5,59.8,59.8,0,0,1,290.18,12a51.31,51.31,0,0,1,12.33-2.11,39.89,39.89,0,0,1,9.48.72,30.16,30.16,0,0,1,6.51,2.11c.85.41,1.6.79,2.26,1.17s1.19.81,1.66,1.16a9,9,0,0,1,2,1.93C325.2,18.1,325.19,18.73,324.93,19.15Z"/></g><g id="023c2e0a-6281-4adb-b096-e32068229ab4" data-name="&lt;Group&gt;"><path id="64f1cbb4-ca34-4210-a0af-10239fcdeac1" data-name="&lt;Path&gt;" class="9e6d7eb9-4d74-445c-a587-dbc1f2c065f0" d="M230.37,25.07a1.22,1.22,0,0,1,1-.66,5,5,0,0,1,3,.74,13.46,13.46,0,0,1,4.85,4.62,19.92,19.92,0,0,1,3.05,11.31,22.55,22.55,0,0,1-1.61,7.53,27.86,27.86,0,0,1-3.94,6.81,34.12,34.12,0,0,1-5.35,5.45,44.93,44.93,0,0,1-5.77,4,78.74,78.74,0,0,1-9.76,4.7c-2.48,1-4,1.59-4,1.59l3.48-2.5c2.15-1.57,5.19-3.75,8.3-6.5a40.89,40.89,0,0,0,8.43-9.91,27.43,27.43,0,0,0,2.57-5.77,21.94,21.94,0,0,0,1-5.58A19.66,19.66,0,0,0,234,32.7a28.59,28.59,0,0,0-2.39-4.23,11.15,11.15,0,0,1-1.24-2.17A1.53,1.53,0,0,1,230.37,25.07Z"/></g><g id="dcecec07-6dbd-4cac-82b7-ef8906f826dc" data-name="&lt;Group&gt;"><path id="b987d39b-3240-42ac-9c98-5ff25cf0fad5" data-name="&lt;Path&gt;" class="9e6d7eb9-4d74-445c-a587-dbc1f2c065f0" d="M221.36,12.33c-.31-.13-.58-.44-.59-1.28a5,5,0,0,1,0-.73,8.81,8.81,0,0,1,.27-.93l.19-.56c.09-.19.19-.38.3-.59a8.75,8.75,0,0,1,.82-1.33,10.58,10.58,0,0,1,1.24-1.48,15,15,0,0,1,1.74-1.52,17.63,17.63,0,0,1,5.29-2.62,19,19,0,0,1,7.88-.63c.38,0,.76.13,1.15.2s.78.16,1.18.28l1.2.37,1.17.47a20.7,20.7,0,0,1,4.61,2.76A23.64,23.64,0,0,1,254.8,14a25.92,25.92,0,0,1,1.71,5.77,26.44,26.44,0,0,1,.33,6A32.67,32.67,0,0,1,254.1,37,41.81,41.81,0,0,1,248.65,46,69.63,69.63,0,0,1,237,57.4c-1.58,1.25-2.87,2.21-3.76,2.87l-1.38,1L233,60.06c.77-.8,1.88-2,3.24-3.43a75.36,75.36,0,0,0,9.62-12.49,40.88,40.88,0,0,0,3.93-8.78,29.57,29.57,0,0,0,1.38-9.71,21.82,21.82,0,0,0-2.21-9A19.6,19.6,0,0,0,243.72,10a15.45,15.45,0,0,0-3.15-1.93l-.77-.34L239,7.46a4.88,4.88,0,0,0-.75-.2c-.25-.06-.49-.13-.74-.18a15.48,15.48,0,0,0-5.41,0,17.11,17.11,0,0,0-4,1.27c-.53.27-1,.5-1.46.77s-.82.52-1.17.75-.65.49-.94.69l-.41.3-.35.29a7.32,7.32,0,0,1-.63.47,5.45,5.45,0,0,1-.49.36A1.45,1.45,0,0,1,221.36,12.33Z"/></g><g id="ff6c4770-6e85-45d7-aa90-a18cb9d0867d" data-name="&lt;Group&gt;"><path id="ad049912-6a3e-479e-8524-55fb635c2efd" data-name="&lt;Path&gt;" class="9e6d7eb9-4d74-445c-a587-dbc1f2c065f0" d="M247.4,80.64c-.38.55-1.21,1-3.16.54s-5.1-1.79-10.88-3.49a71.9,71.9,0,0,0-9.65-2,53.3,53.3,0,0,0-10.1-.36,50.6,50.6,0,0,0-7.93,1.18c-1,.24-1.77.49-2.32.63l-.84.23.72-.49c.48-.31,1.15-.8,2-1.33a40.29,40.29,0,0,1,7.66-3.5,41.44,41.44,0,0,1,11-2,37.2,37.2,0,0,1,11.23,1.19c.84.26,1.63.51,2.37.76s1.41.56,2,.82a23.71,23.71,0,0,1,3.25,1.68,15.87,15.87,0,0,1,2.26,1.6,10.17,10.17,0,0,1,1.44,1.37C248,79.21,247.77,80.1,247.4,80.64Z"/></g><g id="c9582eca-2329-45f7-9876-18f0471eb7e9" data-name="&lt;Group&gt;"><path id="28d8d572-23cf-4615-a032-f8d2ae375c89" data-name="&lt;Path&gt;" class="9e6d7eb9-4d74-445c-a587-dbc1f2c065f0" d="M300.52,69.79l.32-.38c.19-.25.52-.57.85-1a21,21,0,0,0,2.44-4,21.41,21.41,0,0,0,1.53-13.51,21.42,21.42,0,0,0-7.36-11.43,20.26,20.26,0,0,0-4-2.55c-.52-.28-.95-.42-1.23-.57l-.45-.19.48-.09a11.16,11.16,0,0,1,1.4-.18,15.25,15.25,0,0,1,5.27.59,17.46,17.46,0,0,1,3.5,1.43,18.62,18.62,0,0,1,3.6,2.57,17.18,17.18,0,0,1,4.49,19.22,19.39,19.39,0,0,1-2.08,3.9,17.7,17.7,0,0,1-2.51,2.83,15,15,0,0,1-4.47,2.86,9.29,9.29,0,0,1-1.33.46Z"/></g><g id="65786885-a339-44c8-9b80-8725cdacdb22" data-name="&lt;Group&gt;"><path id="e16d9154-368f-48ee-86f6-d19005de5730" data-name="&lt;Path&gt;" class="9e6d7eb9-4d74-445c-a587-dbc1f2c065f0" d="M282.91,68.3l.33-.09c.21-.06.52-.12.9-.25a17.13,17.13,0,0,0,3-1.19,18.92,18.92,0,0,0,10-13.55,17.41,17.41,0,0,0,.26-3.17c0-.41,0-.72,0-.94l0-.34.27.2a7,7,0,0,1,.73.66,10.23,10.23,0,0,1,2.09,3,12.24,12.24,0,0,1,1.06,5.59,12.23,12.23,0,0,1-8.21,11.17,12.27,12.27,0,0,1-5.66.64A10.32,10.32,0,0,1,284,69a8.49,8.49,0,0,1-.85-.51Z"/></g><g id="b8b670e9-2a0a-46d6-9fec-fe63f22e1205" data-name="&lt;Group&gt;"><path id="7cc394f1-52e1-41b3-8fda-59bd1ba6d363" data-name="&lt;Path&gt;" class="9e6d7eb9-4d74-445c-a587-dbc1f2c065f0" d="M259.92,49.13s-.26.62-.81,1.73l-.46.92c-.17.33-.38.67-.61,1a27.91,27.91,0,0,1-1.62,2.49l-1,1.4c-.37.48-.79.94-1.22,1.43a37,37,0,0,1-2.93,3,37.84,37.84,0,0,1-7.87,5.41,38,38,0,0,1-9,3.12,34.61,34.61,0,0,1-4.12.59c-.65.05-1.28.12-1.88.13h-1.74a26,26,0,0,1-3-.17c-.44,0-.84-.08-1.21-.13l-1-.18c-1.21-.22-1.87-.38-1.87-.38s.64-.26,1.78-.66l.94-.32,1.11-.43c.79-.31,1.68-.6,2.65-1l1.51-.59c.52-.21,1.06-.46,1.61-.69,1.12-.44,2.27-1,3.49-1.52,2.42-1.12,5-2.37,7.74-3.72s5.24-2.73,7.58-4c1.14-.67,2.28-1.27,3.3-1.9.51-.31,1-.59,1.51-.89l1.38-.86c.9-.53,1.67-1.08,2.39-1.53l1-.63.82-.57C259.33,49.49,259.92,49.13,259.92,49.13Z"/></g><g id="208f6c97-b372-4aef-adf6-25082bd72de9" data-name="&lt;Group&gt;"><path id="66e6c20f-4f0e-48fa-bce2-6a8e4f6b6219" data-name="&lt;Path&gt;" class="9e6d7eb9-4d74-445c-a587-dbc1f2c065f0" d="M223.81,38.8s-.62.68-1.74,1.78l-4.6,4.47L214.41,48c-1.1,1-2.22,2.12-3.44,3.2-2.4,2.24-5,4.56-7.85,6.86s-5.62,4.41-8.29,6.31c-1.31,1-2.63,1.85-3.84,2.72l-3.48,2.41-5.31,3.61c-1.29.88-2.08,1.34-2.08,1.34s.06-.89.33-2.47l.23-1.31c.1-.48.23-1,.37-1.53a36.49,36.49,0,0,1,1.12-3.66c.25-.66.51-1.35.8-2.07s.65-1.43,1-2.18a43.78,43.78,0,0,1,2.63-4.59,39.52,39.52,0,0,1,18.44-15,42.63,42.63,0,0,1,5-1.65c.8-.2,1.57-.41,2.33-.55s1.5-.26,2.2-.37a33.44,33.44,0,0,1,3.81-.36l1.57-.06,1.33,0C222.92,38.69,223.81,38.8,223.81,38.8Z"/></g><g id="a9ddc37f-d84e-483b-af17-d78a3a5f5f47" data-name="&lt;Group&gt;"><path id="9b885fd8-18c8-465d-858e-e6ad323435aa" data-name="&lt;Path&gt;" class="9e6d7eb9-4d74-445c-a587-dbc1f2c065f0" d="M206.71,17.2a57.59,57.59,0,0,1-8.78,21.67,57.59,57.59,0,0,1-17,16,57.53,57.53,0,0,1,8.77-21.67A57.55,57.55,0,0,1,206.71,17.2Z"/></g><path id="88395940-bb85-487d-9588-d0c1c4b6164f" data-name="&lt;Path&gt;" class="9e6d7eb9-4d74-445c-a587-dbc1f2c065f0" d="M180.08,5.6c4.73,6.88,3.41,11.6,3.41,11.6s1.25-3,6.25-3,7.3,6.51,7.3,6.51c-12.3,3.68-17,15.29-17,15.29s-4.66-11.61-17-15.29c0,0,2.29-6.51,7.3-6.51s6.26,3,6.26,3S175.35,12.48,180.08,5.6Z"/><g id="776d2582-f532-4906-b535-ca38350b7558" data-name="&lt;Group&gt;"><path id="976d2f81-0585-4644-ba3b-e9172d2b693c" data-name="&lt;Path&gt;" class="9e6d7eb9-4d74-445c-a587-dbc1f2c065f0" d="M202.17,37.12H202a1.68,1.68,0,0,0,0,3.35h.22a1.68,1.68,0,1,0,0-3.35Z"/></g><g id="caea663d-c3aa-4df9-b44d-df7c539592a8" data-name="&lt;Group&gt;"><path id="fff1d102-b921-48db-8ce4-9d76e105afec" data-name="&lt;Path&gt;" class="9e6d7eb9-4d74-445c-a587-dbc1f2c065f0" d="M206.86,37.79a1.67,1.67,0,0,0,0-3.34,1.67,1.67,0,0,0,0,3.34Z"/></g><g id="4e353bb7-1867-40fc-8eb0-d71ed8eed71d" data-name="&lt;Group&gt;"><path id="55730c29-32b4-4338-94cb-98d9991e8c8c" data-name="&lt;Path&gt;" class="9e6d7eb9-4d74-445c-a587-dbc1f2c065f0" d="M212.89,36.23a1.68,1.68,0,0,0,0-3.35,1.68,1.68,0,0,0,0,3.35Z"/></g><g id="d1121f47-ee28-41aa-bcf6-17e7c1a129ba" data-name="&lt;Group&gt;"><path id="8c2b5da8-0876-4426-a6f8-66ed6de946d8" data-name="&lt;Path&gt;" class="9e6d7eb9-4d74-445c-a587-dbc1f2c065f0" d="M218.69,36.68a1.68,1.68,0,0,0,0-3.35,1.68,1.68,0,0,0,0,3.35Z"/></g><g id="77f764de-d502-4dc8-9809-b2cdfb870cc3" data-name="&lt;Group&gt;"><path id="be11df79-0e2c-44f1-9922-3038eaa45dc1" data-name="&lt;Path&gt;" class="9e6d7eb9-4d74-445c-a587-dbc1f2c065f0" d="M229.4,12.8h.22a1.68,1.68,0,1,0,0-3.35h-.22a1.68,1.68,0,0,0,0,3.35Z"/></g><g id="306bf0c0-4780-42dd-8fbf-7c8e5930cc36" data-name="&lt;Group&gt;"><path id="70bc1ad5-8f61-40c2-9a55-327d04028cdd" data-name="&lt;Path&gt;" class="9e6d7eb9-4d74-445c-a587-dbc1f2c065f0" d="M234.53,11.91a1.68,1.68,0,0,0,0-3.35,1.68,1.68,0,0,0,0,3.35Z"/></g><g id="60efa050-aeb0-47b2-ada3-7f2b08e046a5" data-name="&lt;Group&gt;"><path id="9ec437c5-bde8-49f9-a3ea-5a0c3d892613" data-name="&lt;Path&gt;" class="9e6d7eb9-4d74-445c-a587-dbc1f2c065f0" d="M239.89,13.47a1.68,1.68,0,0,0,0-3.35,1.68,1.68,0,0,0,0,3.35Z"/></g><g id="49785fd3-98db-4791-b7fb-8fcb707323c1" data-name="&lt;Group&gt;"><path id="9572a6aa-688f-4bef-9d38-f90664232284" data-name="&lt;Path&gt;" class="9e6d7eb9-4d74-445c-a587-dbc1f2c065f0" d="M243.9,19.05a1.68,1.68,0,0,0,0-3.35,1.68,1.68,0,0,0,0,3.35Z"/></g><g id="b69283ad-db4f-4da6-9ddb-3c0c1730dba7" data-name="&lt;Group&gt;"><path id="708884d7-fd05-40c4-966e-db52e6c65597" data-name="&lt;Path&gt;" class="9e6d7eb9-4d74-445c-a587-dbc1f2c065f0" d="M315.86,15.32l-.49-.24c-.34-.15-.78-.44-1.42-.7a27.29,27.29,0,0,0-5.5-1.8,33.22,33.22,0,0,0-8.68-.69,41.79,41.79,0,0,0-10.64,2,67.89,67.89,0,0,0-18.24,9.78c-2.23,1.61-4,3-5.24,4l-1.91,1.53s.58-.65,1.67-1.79,2.69-2.75,4.77-4.61a63.37,63.37,0,0,1,7.71-5.93,46.19,46.19,0,0,1,10.53-5.11A35.33,35.33,0,0,1,299.74,10a29.27,29.27,0,0,1,9,1.5,23.65,23.65,0,0,1,5.37,2.58c.6.36,1,.72,1.3.92Z"/><path id="7f55cd7e-3427-40ee-bee7-5885207f07f1" data-name="&lt;Path&gt;" class="9e6d7eb9-4d74-445c-a587-dbc1f2c065f0" d="M315.11,9.33l-.55-.19c-.37-.12-.89-.32-1.58-.55a38.2,38.2,0,0,0-5.92-1.3,44.73,44.73,0,0,0-19.44,2A73.12,73.12,0,0,0,270,18.18c-2.12,1.42-3.79,2.65-5,3.49L263.3,23l1.56-1.6c1-1,2.52-2.45,4.5-4.12a60.31,60.31,0,0,1,7.37-5.36,48.32,48.32,0,0,1,10.19-4.79,39.33,39.33,0,0,1,11.17-1.91,34.88,34.88,0,0,1,9.18,1,30.85,30.85,0,0,1,5.84,2.09c.66.32,1.15.6,1.49.78Z"/><path id="f3c07bb5-5705-456d-8153-f08f398ba133" data-name="&lt;Path&gt;" class="9e6d7eb9-4d74-445c-a587-dbc1f2c065f0" d="M309.2,2.8l-.48-.07c-.32-.06-.79-.12-1.39-.18s-1.33-.16-2.18-.19l-1.36-.08-1.52,0a48.62,48.62,0,0,0-7.38.54,54.75,54.75,0,0,0-8.71,2.06,74.53,74.53,0,0,0-14.46,6.68c-1.74,1-3.11,1.91-4.06,2.52l-1.08.71-.38.25.34-.3,1-.84c.87-.73,2.13-1.78,3.79-3a52.8,52.8,0,0,1,14.4-7.48,42.79,42.79,0,0,1,9-1.9,40.59,40.59,0,0,1,7.56,0l1.54.15,1.36.22c.85.12,1.58.31,2.17.44s1.05.24,1.36.34Z"/></g><g id="239f33b2-446f-41a7-8ef1-be6c0ab66cac" data-name="&lt;Group&gt;"><path id="3af59cfe-36d3-4e3e-94d5-4c49fc74e864" data-name="&lt;Path&gt;" class="9e6d7eb9-4d74-445c-a587-dbc1f2c065f0" d="M217.87,57.91a43.23,43.23,0,0,1-13,10.3,43.25,43.25,0,0,1-16,4.33,41.28,41.28,0,0,1,29.06-14.63Z"/></g><g id="82ed29cb-6e0b-493d-b678-8ba11a040516" data-name="&lt;Group&gt;"><path id="5fee6adb-38bd-44ec-81ed-411502a77dbf" data-name="&lt;Path&gt;" class="9e6d7eb9-4d74-445c-a587-dbc1f2c065f0" d="M352.53,33a2.44,2.44,0,0,1,1.73,0,5.15,5.15,0,0,1,2.31,2,16.25,16.25,0,0,1,2.36,5.67,30.19,30.19,0,0,1,.46,10.79,34.2,34.2,0,0,1-5.05,13.78,37.07,37.07,0,0,1-9.92,10.33,36,36,0,0,1-9.51,4.76,29.06,29.06,0,0,1-3,.81l-1.08.23.9-.62c.58-.39,1.4-1,2.38-1.79a41.58,41.58,0,0,0,12.66-17.58,50.54,50.54,0,0,0,2.63-11.19A82.07,82.07,0,0,0,350,41.7a44.82,44.82,0,0,1,.3-5.05,6.43,6.43,0,0,1,.9-2.65A2.75,2.75,0,0,1,352.53,33Z"/></g></g></g></svg>